<svg version="1.1" id="Layer_1" xmlns="http://www.w3.org/2000/svg" xmlns:xlink="http://www.w3.org/1999/xlink" x="0px" y="0px"
	 width="100%" viewBox="0 0 502 497" enable-background="new 0 0 502 497" xml:space="preserve">
<path fill="#000000" opacity="1.000000" stroke="none" 
	d="
M1.000000,180.000000 
	C1.000000,120.014870 1.000000,60.529739 1.000000,1.022305 
	C168.276642,1.022305 335.553284,1.022305 502.914978,1.022305 
	C502.914978,166.568527 502.914978,332.137115 502.914978,497.852844 
	C335.666748,497.852844 168.333405,497.852844 1.000000,497.852844 
	C1.000000,392.113251 1.000000,286.306610 1.000000,180.000000 
M363.016357,132.971924 
	C363.016357,132.971924 363.082489,132.938797 362.734009,132.332214 
	C361.821991,132.279724 360.909943,132.227234 359.574158,132.040024 
	C359.574158,132.040024 359.135040,131.970047 358.859833,131.382462 
	C358.245117,131.313156 357.630432,131.243851 356.588501,131.034363 
	C356.588501,131.034363 356.144073,130.966034 355.860962,130.376877 
	C355.240936,130.313782 354.620911,130.250671 353.588440,130.046661 
	C353.588440,130.046661 353.161072,129.960892 352.831665,129.313797 
	C349.228119,128.940079 345.624542,128.566376 341.406677,128.055298 
	C340.988129,128.024475 340.569580,127.993668 339.675323,127.215782 
	C334.107117,127.449348 328.538910,127.682907 322.344421,127.992012 
	C321.924988,127.969795 321.505524,127.947578 320.720917,127.388359 
	C319.129089,127.902908 317.537231,128.417465 315.523560,128.983917 
	C315.523560,128.983917 315.098694,128.973007 314.907227,128.497513 
	C314.570496,128.655930 314.233795,128.814331 313.484467,129.028259 
	C313.484467,129.028259 313.081787,129.134140 312.277466,128.971786 
	C307.831299,130.634979 303.385162,132.298187 299.000458,133.990479 
	C299.000458,133.990479 298.966614,133.931534 298.203766,133.974991 
	C296.552338,134.630478 294.893768,135.268585 293.250702,135.944397 
	C285.943054,138.950089 278.840424,142.687820 271.282349,144.789688 
	C262.574585,147.211288 253.514969,148.785568 244.509232,149.528351 
	C240.453400,149.862869 236.157700,147.289474 232.566101,145.774063 
	C234.251404,145.588013 235.936707,145.401962 237.622009,145.215912 
	C237.623642,144.694183 237.625290,144.172455 237.626938,143.650726 
	C236.301270,143.454727 234.948608,143.366928 233.654480,143.044373 
	C227.351974,141.473434 220.406372,141.019745 214.923294,137.958603 
	C206.149857,133.060516 198.141678,126.684532 190.184006,120.455498 
	C175.064651,108.620468 158.257996,107.066277 140.922791,113.118500 
	C127.781052,117.706657 115.488777,124.464836 107.584099,136.827271 
	C102.986290,144.017944 97.750771,150.949051 94.231750,158.650177 
	C87.132927,174.185425 81.987206,190.408951 80.930435,207.691452 
	C80.675705,211.857361 79.644066,215.975739 78.123749,220.362701 
	C78.070000,229.263351 77.996292,238.164032 78.006447,247.064621 
	C78.007141,247.671829 78.636963,248.278305 79.621254,249.440720 
	C80.700279,259.738495 80.843491,270.117737 83.810371,280.214569 
	C87.216080,291.804779 89.089798,303.910980 93.231384,315.205505 
	C101.952873,338.989777 114.011002,360.915558 135.452362,375.857635 
	C150.272537,386.185516 166.217560,391.662994 184.553635,382.948212 
	C184.739212,382.929504 184.924774,382.910828 185.706818,383.214630 
	C191.170654,388.533173 197.853180,391.639771 204.963211,394.094513 
	C214.796234,397.489380 224.899994,395.452515 235.407242,395.853027 
	C235.602325,395.577881 235.797394,395.302734 236.006241,395.006592 
	C236.006241,395.006592 236.030579,395.000336 236.823410,395.025116 
	C253.679886,389.066071 270.700989,390.052063 287.667847,394.217987 
	C301.398468,397.589355 315.157776,397.818176 328.989197,395.532959 
	C337.363739,394.149353 345.449463,391.385376 352.248505,386.305023 
	C366.402557,375.729004 379.404419,363.833282 389.987610,349.564850 
	C399.337708,336.958862 407.701202,323.653748 413.013947,308.856384 
	C418.483093,293.623291 423.354706,278.137146 427.621033,262.524902 
	C430.256897,252.879242 432.268677,242.841583 432.771729,232.889496 
	C433.431549,219.835617 432.756744,206.663971 431.880463,193.594955 
	C430.659119,175.380142 425.532104,158.058426 416.590332,142.172272 
	C408.583527,127.947243 397.826691,116.342476 382.804565,108.715141 
	C369.640564,102.031235 355.684845,100.031128 341.287140,98.938805 
	C346.633942,90.865646 347.655396,81.746529 348.991943,72.720024 
	C349.869171,66.795876 350.242157,60.741409 351.740051,54.979015 
	C353.587067,47.873554 356.367828,41.010811 358.820831,33.821106 
	C336.192657,33.854511 315.122284,39.819321 295.867798,51.800724 
	C290.280731,55.277409 284.839020,59.375809 280.378265,64.164970 
	C275.948273,68.921104 272.151855,74.574921 269.323059,80.436188 
	C265.868835,87.593292 263.712463,95.376793 260.509827,103.092758 
	C260.074921,103.349739 259.639984,103.606720 259.065857,103.108398 
	C246.418045,53.942940 197.010056,33.333832 160.446198,34.535519 
	C160.475098,35.010048 160.369934,35.542084 160.551895,35.944206 
	C166.819244,49.795891 170.413376,64.170235 171.212067,79.485077 
	C171.534805,85.673744 173.777618,92.652382 177.450668,97.540108 
	C181.595001,103.054993 187.766373,107.818489 194.056458,110.794563 
	C208.937424,117.835312 224.498245,123.423576 239.603287,130.013733 
	C245.968063,132.790604 251.876602,136.613251 258.210663,140.480438 
	C259.136871,140.597061 260.063049,140.713684 261.666138,140.694321 
	C280.909180,130.206940 300.766968,121.499626 322.488495,117.234924 
	C334.353302,114.905441 346.354065,114.419785 357.418823,118.098907 
	C374.185486,123.673958 385.615845,136.363052 393.200226,151.646362 
	C391.896820,150.713745 390.630005,149.724243 389.283844,148.858109 
	C382.577606,144.543350 375.850494,140.261047 368.805023,135.354950 
	C367.548035,134.877762 366.291046,134.400589 365.004791,133.987274 
	C365.004791,133.987274 365.070343,133.961960 364.798218,133.397919 
	C364.205261,133.231277 363.612274,133.064651 363.016357,132.971924 
M360.931427,453.073944 
	C360.901855,441.736084 360.872253,430.398193 360.997589,418.155548 
	C360.997589,414.277527 360.997589,410.399475 360.997589,406.210236 
	C359.996918,406.439606 359.247009,406.674713 358.479462,406.776245 
	C355.433929,407.179138 351.154388,406.493774 349.686340,408.217072 
	C348.275635,409.873199 349.774109,414.007507 349.191254,417.396759 
	C349.136261,429.601746 349.066498,441.806763 349.067719,454.011749 
	C349.067780,454.656067 349.668793,455.300293 349.997101,456.835968 
	C349.710571,459.092377 349.123047,461.365173 349.244812,463.599335 
	C349.324097,465.054260 350.225067,467.500458 351.123230,467.680511 
	C353.821228,468.221344 356.720886,468.062927 359.491760,467.743225 
	C360.301910,467.649750 361.559937,466.102386 361.557159,465.224762 
	C361.545227,461.465424 361.139221,457.707367 360.931427,453.073944 
M301.277405,465.171509 
	C300.184723,467.987640 301.860901,468.047180 303.951569,468.031616 
	C314.021912,467.956665 324.093079,467.993744 334.163208,467.903320 
	C335.176392,467.894226 336.184296,467.294922 337.801178,466.621796 
	C338.072266,464.522369 338.343384,462.422943 338.687622,459.757080 
	C332.382660,460.710114 326.165222,461.773529 319.910126,462.522186 
	C317.963287,462.755219 315.914459,462.135986 314.001892,460.983887 
	C313.957031,446.697052 313.912170,432.410248 313.945831,417.231781 
	C313.940521,413.937256 315.191742,408.863953 313.635681,407.764771 
	C311.296783,406.112610 306.991730,407.240753 303.522461,407.203217 
	C303.386139,407.201721 303.248016,407.369476 302.674744,407.740601 
	C303.090973,413.022888 303.526611,418.551361 303.190521,424.460297 
	C303.126373,429.847931 302.945770,435.237762 303.046204,440.622345 
	C303.097992,443.398560 303.649719,446.165436 304.021332,449.810669 
	C303.397186,454.893982 302.773071,459.977295 301.277405,465.171509 
M378.162262,423.418274 
	C378.108002,429.491913 377.956268,435.567017 378.047150,441.638489 
	C378.083832,444.089569 378.651031,446.532776 378.997955,449.910797 
	C378.658813,454.506714 378.166656,459.099579 378.074951,463.700439 
	C378.047821,465.059845 379.018494,467.536957 379.758850,467.626526 
	C383.232544,468.046753 386.785309,467.813354 390.568726,467.813354 
	C390.316345,466.010986 390.132629,465.217743 390.104584,464.419067 
	C389.797058,455.669739 389.427063,446.920074 389.369415,438.168579 
	C389.364136,437.366730 391.413879,435.844757 392.483368,435.867706 
	C396.583527,435.955658 400.667511,436.770721 404.768158,436.868652 
	C408.756317,436.963867 410.245270,434.443634 409.076843,429.992584 
	C402.660889,430.322693 396.188171,430.655701 389.784241,430.985199 
	C389.784241,423.955414 389.784241,417.541199 389.784241,411.098846 
	C395.746887,411.098846 401.763611,410.315826 407.454590,411.341064 
	C412.197815,412.195587 413.390259,410.779877 413.582245,406.114746 
	C410.007935,406.114746 406.468292,406.114746 402.002777,406.054840 
	C394.853363,406.028046 387.703613,405.961273 380.555023,406.026306 
	C379.685730,406.034210 378.822876,406.751129 377.987396,407.996094 
	C378.312256,413.024048 378.637146,418.052032 378.162262,423.418274 
M453.049957,406.081421 
	C444.329224,406.031494 435.608215,405.934479 426.888184,405.992767 
	C425.828735,405.999847 424.774872,406.843231 423.877502,408.145538 
	C424.246704,413.437439 424.615906,418.729370 424.191925,424.388458 
	C424.127808,429.805267 423.946838,435.224243 424.047882,440.637939 
	C424.099945,443.424988 424.654388,446.202637 424.979370,449.893188 
	C424.362213,455.612274 423.745056,461.331360 423.409821,467.876862 
	C435.197388,467.876862 446.984955,467.876862 459.281708,467.876862 
	C458.931641,465.561096 458.612366,463.448853 457.370972,461.176880 
	C449.928314,461.775665 442.485657,462.374451 434.989471,462.043274 
	C435.039795,454.040100 435.090118,446.036957 435.991577,437.980164 
	C439.940063,438.050781 443.939484,437.748810 447.825043,438.279816 
	C453.576691,439.065948 454.536804,438.450287 454.401093,432.030914 
	C448.121735,432.337402 441.833679,432.644318 434.998688,432.977936 
	C434.998688,425.947144 434.855530,419.653961 435.148438,413.381104 
	C435.193939,412.406647 437.152252,410.867554 438.363495,410.720276 
	C442.516296,410.215515 446.730286,410.213959 451.239136,410.654907 
	C452.160339,410.786591 453.081573,410.918274 454.303772,411.550720 
	C454.858856,411.678711 455.413910,411.806702 456.625824,411.847351 
	C457.016510,410.927002 457.407227,410.006653 457.960541,408.635712 
	C457.960541,408.635712 458.102173,408.178070 458.611237,407.838715 
	C458.094788,407.312836 457.578308,406.786957 456.269928,406.112579 
	C455.467072,406.128235 454.664246,406.143890 453.049957,406.081421 
M118.217705,463.244904 
	C118.217705,464.795319 118.217705,466.345734 118.217705,467.935059 
	C129.423752,467.935059 140.210571,467.982178 150.995331,467.854523 
	C151.963425,467.843048 152.918137,466.700439 153.968979,465.310181 
	C155.293594,460.012085 155.088120,459.824371 149.796127,460.845642 
	C147.398865,461.308258 144.973389,461.782776 142.544861,461.888885 
	C138.683853,462.057556 134.809555,461.922211 131.004990,460.990387 
	C131.004990,453.383118 131.004990,445.775848 131.004990,437.883789 
	C133.253342,437.883789 135.062515,437.883789 137.766800,437.931488 
	C139.580109,438.044159 141.426407,437.976562 143.200851,438.301453 
	C149.947861,439.536835 150.618744,438.877319 149.097015,431.951935 
	C145.390366,432.288147 141.663727,432.626160 137.589050,432.201050 
	C135.507217,432.079712 133.425385,431.958405 130.955688,431.814453 
	C130.955688,424.787048 130.955688,417.927277 131.788116,410.913422 
	C137.168152,410.877655 142.558472,411.016205 147.921921,410.699524 
	C149.522247,410.605042 151.047287,409.235657 152.606827,408.450378 
	C151.601959,407.646729 150.587036,406.134796 149.593750,406.148895 
	C139.555527,406.291229 129.520828,406.683228 119.430328,407.006866 
	C119.648155,410.523865 119.819557,413.291290 119.197716,416.417419 
	C119.142876,429.279053 119.074173,442.140717 119.073700,455.002350 
	C119.073677,455.652527 119.662544,456.302673 119.974266,457.765625 
	C119.669815,459.523621 119.365364,461.281647 118.217705,463.244904 
M179.979706,437.972870 
	C183.929977,438.043610 187.931396,437.740784 191.818497,438.272949 
	C197.594604,439.063782 197.774445,439.148132 198.725754,432.427643 
	C192.286087,432.427643 185.893356,432.427643 179.318420,432.427643 
	C179.318420,425.140137 179.318420,417.923096 179.318420,410.438843 
	C186.241455,410.951019 192.798920,411.667694 199.360168,411.704254 
	C200.516052,411.710663 201.687790,408.872528 202.852203,407.348022 
	C201.768997,406.647034 200.683121,405.335480 199.602997,405.340210 
	C189.598160,405.384064 179.593979,405.641205 169.590591,405.878113 
	C168.401337,405.906281 167.217987,406.184143 167.118011,406.197784 
	C167.776001,412.217468 168.370789,417.658875 168.172531,423.443939 
	C168.112686,430.595551 167.963028,437.748138 168.039505,444.898315 
	C168.068024,447.564667 168.624771,450.225372 168.999878,453.782104 
	C168.246414,458.171478 167.492935,462.560852 167.207870,467.729431 
	C178.182526,467.795105 189.157166,467.878571 200.131851,467.884216 
	C200.820023,467.884583 201.508499,467.276672 202.790039,466.630768 
	C202.958618,464.577209 203.127213,462.523682 203.293427,460.499084 
	C195.029480,461.343842 187.035294,462.161011 178.993210,462.046844 
	C179.038010,454.044128 179.082794,446.041443 179.979706,437.972870 
M216.911728,453.976379 
	C216.911728,458.387604 216.911728,462.798798 216.911728,467.927032 
	C219.339035,467.927032 222.292892,467.968506 225.245071,467.915558 
	C228.271606,467.861267 228.823563,466.675659 228.510956,463.447876 
	C227.896957,457.108215 228.330307,450.667145 228.330307,443.778534 
	C232.410324,443.778534 235.904602,444.104065 239.319199,443.720398 
	C251.944794,442.301880 261.311920,429.527924 256.799103,417.744171 
	C254.732361,412.347534 250.166656,409.321442 245.035873,407.042480 
	C235.321457,402.727509 225.404144,407.386414 216.232010,405.788940 
	C216.500763,410.494995 216.743057,414.737823 216.198837,419.370056 
	C216.136398,429.943695 216.056412,440.517365 216.053558,451.091003 
	C216.053391,451.749939 216.658188,452.408966 216.911728,453.976379 
M55.960442,451.893066 
	C55.682987,457.061554 55.405537,462.230042 55.101978,467.884857 
	C58.939877,467.884857 62.084080,468.061188 65.186172,467.777283 
	C66.114944,467.692291 67.676643,466.320221 67.674759,465.540863 
	C67.656387,457.933624 67.414162,450.325317 67.126045,442.721405 
	C67.046837,440.630890 66.600647,438.554260 66.189110,435.468384 
	C69.660118,439.123077 72.235329,441.821899 74.796585,444.533875 
	C80.698090,450.782684 86.495277,457.134674 92.547684,463.233551 
	C94.444206,465.144623 96.857491,467.275269 99.322418,467.724609 
	C103.396683,468.467346 107.704964,467.926392 111.548752,467.926392 
	C99.912712,455.915833 88.488388,444.123810 76.569206,431.820984 
	C86.427994,423.721283 95.968262,415.883301 106.295799,407.398499 
	C96.073830,406.707428 95.839218,407.108704 89.472931,412.852753 
	C82.209160,419.406525 74.514351,425.482574 67.045685,431.733734 
	C67.045685,425.566620 67.095238,419.960754 67.033516,414.356110 
	C66.950798,406.845367 66.913841,406.846191 59.250778,407.075562 
	C58.751698,407.090485 58.022526,406.882141 57.792423,407.134735 
	C56.768982,408.258301 55.100044,409.510101 55.097221,410.718872 
	C55.086899,415.140137 55.648781,419.562714 55.193542,424.350006 
	C55.128223,430.764618 54.966721,437.180420 55.046310,443.593231 
	C55.076897,446.057404 55.656834,448.514771 55.960442,451.893066 
z"/>
<path fill="#1BCC65" opacity="1.000000" stroke="none" 
	d="
M356.144073,130.966034 
	C356.144073,130.966034 356.588501,131.034363 357.013763,131.309753 
	C358.004364,131.713440 358.569702,131.841736 359.135040,131.970032 
	C359.135040,131.970047 359.574158,132.040024 360.034241,132.325928 
	C361.357056,132.720825 362.219788,132.829819 363.082489,132.938797 
	C363.082489,132.938797 363.016357,132.971924 363.186707,133.192444 
	C363.928162,133.595963 364.499237,133.778961 365.070343,133.961960 
	C365.070343,133.961960 365.004791,133.987274 365.088928,134.318817 
	C366.492310,135.089340 367.811523,135.528336 369.130737,135.967331 
	C375.850494,140.261047 382.577606,144.543350 389.283844,148.858109 
	C390.630005,149.724243 391.896820,150.713745 393.686462,152.066650 
	C395.763153,154.791092 397.743774,156.917740 398.884918,159.426285 
	C413.555695,191.675751 417.070984,225.568832 410.491669,259.967896 
	C404.527588,291.150238 392.045166,320.091217 372.521332,345.464569 
	C366.624146,353.128632 359.331055,359.718567 352.085388,367.430603 
	C343.302368,354.990997 337.981293,342.631226 333.535248,329.960938 
	C329.103699,317.332184 325.527588,304.403320 321.474304,291.275238 
	C320.695953,292.088745 319.862152,292.676361 319.406769,293.478760 
	C312.859222,305.016144 307.926666,317.200104 306.302612,330.414734 
	C305.918579,333.539337 306.765717,337.735992 308.701752,340.061310 
	C316.014465,348.844238 323.934814,357.129547 331.790466,365.447418 
	C334.342377,368.149475 337.392303,370.381195 340.785583,373.323212 
	C329.835846,379.866943 318.736145,382.679413 306.956360,382.846222 
	C305.863464,382.861664 304.066833,380.702576 303.745667,379.291687 
	C302.494293,373.794403 301.507294,368.217682 300.777985,362.624084 
	C296.646118,330.935242 304.696289,302.201569 322.479828,276.051147 
	C338.163513,252.988571 358.596893,234.862167 382.143097,220.127457 
	C387.137115,217.002304 392.193054,213.976059 397.220459,210.904251 
	C397.111237,210.416672 397.002045,209.929092 396.892822,209.441513 
	C391.261597,210.137939 385.548035,210.442673 380.014801,211.605515 
	C364.520569,214.861664 351.771057,223.829956 338.578430,231.926788 
	C325.811218,239.762512 312.812012,247.263840 297.945862,250.573166 
	C280.794373,254.391205 271.438995,247.284424 272.046967,229.825897 
	C272.361755,220.786789 274.715607,211.818542 276.150970,202.818726 
	C276.466278,200.841812 276.793396,198.866776 277.115112,196.890884 
	C276.556702,196.868851 275.998322,196.846817 275.439941,196.824783 
	C237.644974,258.784149 237.601913,319.786224 282.200562,379.914490 
	C278.189880,379.914490 275.368835,379.897766 272.548065,379.917419 
	C261.135040,379.996826 250.404816,382.580902 240.959900,389.186493 
	C238.946335,390.594757 237.654755,393.035339 236.030579,395.000336 
	C236.030579,395.000336 236.006241,395.006592 235.760864,395.072906 
	C235.257614,395.347656 235.045532,395.595367 234.879272,395.882294 
	C224.899994,395.452515 214.796234,397.489380 204.963211,394.094513 
	C197.853180,391.639771 191.170654,388.533173 185.484207,382.754822 
	C186.197891,381.215210 187.134186,380.135468 188.032196,379.038940 
	C187.993896,379.022186 188.052994,379.081512 188.384705,379.006165 
	C191.500183,375.967468 194.283951,373.004089 197.045227,370.018372 
	C197.022736,369.995972 197.024399,370.059418 197.237946,369.943848 
	C197.711838,369.614746 197.879059,369.343781 198.032501,368.859985 
	C198.111816,368.704651 198.159195,368.359070 198.453537,368.192932 
	C199.523575,366.699463 200.299271,365.372131 201.047760,364.018860 
	C201.020523,363.992889 201.048767,364.062500 201.334015,363.863983 
	C202.459702,361.469910 203.300110,359.274323 204.119812,357.048492 
	C204.099121,357.018219 204.069870,357.085480 204.305115,356.992249 
	C204.688248,356.602570 204.836166,356.306183 205.216324,355.762878 
	C205.914627,353.996185 206.380676,352.476318 207.035202,350.622559 
	C209.883698,340.706055 212.200012,331.028381 209.756348,321.077820 
	C207.768967,312.985291 205.245743,305.024292 202.931030,296.716614 
	C202.601654,295.950836 202.301376,295.473480 201.951172,294.642517 
	C197.678055,285.360687 192.224472,277.513916 182.856033,272.646545 
	C178.530807,270.780975 174.447021,269.164764 170.363251,267.548553 
	C170.198029,267.987091 170.032822,268.425629 169.867599,268.864166 
	C173.544464,270.596802 177.221313,272.329437 181.099426,274.327087 
	C194.595032,286.108215 199.006683,301.414795 200.001022,318.218475 
	C200.631775,328.877502 198.168793,338.994080 194.843384,349.142334 
	C194.793793,349.294952 194.836273,349.613098 194.582428,349.832428 
	C193.866913,351.023895 193.405258,351.996033 192.967606,352.986694 
	C192.991608,353.005249 192.962769,352.952271 192.694946,353.117432 
	C191.945724,354.187012 191.464310,355.091400 190.992401,355.998444 
	C191.001892,356.001099 190.993591,355.982697 190.724487,356.146545 
	C189.964645,357.210022 189.473892,358.109619 188.923157,359.146942 
	C188.863174,359.284668 188.874146,359.584869 188.639313,359.754639 
	C188.240540,360.262085 188.076584,360.599792 187.947006,360.923584 
	C187.981369,360.909637 187.918533,360.870239 187.633850,360.894836 
	C186.960648,361.300079 186.572098,361.680725 186.137238,362.076355 
	C186.090912,362.091278 186.068008,362.185883 185.796204,362.270447 
	C184.757965,362.919128 183.991501,363.483215 182.967270,364.141052 
	C182.477844,364.509155 182.246185,364.783539 182.020325,365.036652 
	C182.026138,365.015411 182.060211,365.050629 181.654495,365.036621 
	C179.939804,365.177917 178.151184,364.839874 177.400711,365.569550 
	C172.962769,369.884613 170.944122,366.266724 168.502197,363.246613 
	C166.044968,360.207611 166.341370,354.807587 160.898102,354.283997 
	C160.677307,354.262756 160.475418,353.794373 160.307617,353.509125 
	C154.966629,344.430054 149.022690,335.641479 144.459534,326.186554 
	C139.549408,316.012695 135.482025,305.366364 131.866272,294.649719 
	C127.014923,280.270935 123.347176,265.638733 121.602600,250.386703 
	C119.795532,234.588348 119.280167,219.104965 121.860283,203.360443 
	C123.966019,190.510651 129.334427,179.027039 135.052322,167.693268 
	C139.477356,158.922180 147.944183,153.918304 155.962860,148.792404 
	C157.159836,148.027237 159.186172,148.669266 160.571106,148.067337 
	C164.404053,146.401413 167.928360,143.603958 171.893845,142.768250 
	C177.155777,141.659302 182.789780,139.153198 188.332138,143.128723 
	C188.720688,143.778381 188.900269,144.266251 189.053772,145.157684 
	C188.898849,148.481964 189.829376,150.595123 193.095261,150.947479 
	C193.080414,150.978195 193.041672,150.922012 193.153427,151.151154 
	C193.537888,151.575348 193.810608,151.770386 194.049957,151.976746 
	C194.016617,151.988083 194.032578,151.919464 194.154678,152.155106 
	C194.567795,152.583618 194.858795,152.776489 195.427490,153.120544 
	C197.157211,154.795731 198.609253,156.319733 200.098663,158.192795 
	C201.068710,159.038895 202.001389,159.535919 202.962296,160.017914 
	C202.990524,160.002884 202.986588,160.066727 203.126282,160.270905 
	C203.495987,160.727081 203.775833,160.896988 204.308319,161.047485 
	C204.776230,161.241592 204.969437,161.442276 205.106232,162.110596 
	C207.097214,163.327148 209.072739,164.145294 211.026031,164.981842 
	C211.003799,165.000229 211.012390,164.943207 211.208649,165.195496 
	C212.013794,165.594925 212.622681,165.742050 213.434753,165.889618 
	C213.637939,165.890045 214.026627,166.008575 214.104370,166.359467 
	C216.094864,166.861115 218.007629,167.011887 220.372620,167.120697 
	C223.246643,167.115692 225.668457,167.152634 228.411102,167.421661 
	C234.983597,168.598145 240.929733,168.141052 246.187225,163.834259 
	C246.328033,163.789368 246.613968,163.864273 246.958649,163.878296 
	C247.862961,163.568359 248.422577,163.244400 248.987564,162.954987 
	C248.992950,162.989548 248.936035,162.948853 249.280518,162.962067 
	C250.414581,162.627808 251.204163,162.280334 252.193451,161.725281 
	C252.947128,161.403488 253.501083,161.289276 254.164307,161.291321 
	C254.620239,161.509109 254.862656,161.375488 255.196930,160.957397 
	C255.393066,160.908066 255.796677,160.934692 256.210205,160.956604 
	C258.743134,160.288742 260.862518,159.598969 262.985413,158.945465 
	C262.988953,158.981735 262.927612,158.942276 263.220276,158.937775 
	C263.996460,158.651779 264.479950,158.370300 265.284485,158.009659 
	C266.263000,157.907761 266.920532,157.885040 268.069519,157.898087 
	C272.568207,157.399384 276.568420,156.802246 280.585510,156.357483 
	C282.525360,156.142715 285.222198,155.369141 286.321045,156.311798 
	C289.918488,159.397995 294.202728,157.919357 298.033447,158.955780 
	C298.026184,158.960373 298.050446,158.938034 298.081299,159.287842 
	C299.957306,161.466568 301.802521,163.295486 303.647736,165.124405 
	C304.054840,164.789383 304.461945,164.454361 304.869049,164.119324 
	C304.679657,160.404572 304.784760,156.547089 299.873840,155.097977 
	C299.894531,155.065247 299.941772,155.126587 299.782471,154.868195 
	C299.065125,154.417908 298.507050,154.226013 297.971252,154.015961 
	C297.993469,153.997818 297.981201,154.053909 297.863617,153.830490 
	C297.472473,153.418762 297.198883,153.230438 296.960022,153.028458 
	C296.994690,153.014786 296.957520,153.079437 296.846619,152.853424 
	C296.465210,152.436752 296.194641,152.246109 295.934570,152.091736 
	C295.945068,152.128036 295.873108,152.151062 295.843262,151.786774 
	C292.569763,150.559402 289.326172,149.696320 285.757507,148.839340 
	C284.612518,148.578430 283.792542,148.311447 282.762512,147.765991 
	C280.238922,146.986633 277.925415,146.485718 274.651337,145.776840 
	C280.926941,143.143738 286.492035,140.976608 291.897797,138.466309 
	C294.413483,137.298050 296.619965,135.463852 298.966614,133.931519 
	C298.966614,133.931534 299.000458,133.990479 299.394348,133.990662 
	C304.219391,132.371948 308.650604,130.753036 313.081787,129.134140 
	C313.081787,129.134140 313.484467,129.028259 313.991333,129.008118 
	C314.698395,128.983002 314.898529,128.978012 315.098694,128.973007 
	C315.098694,128.973007 315.523560,128.983917 315.990173,129.219635 
	C317.999878,128.945343 319.542999,128.435349 321.086090,127.925354 
	C321.505524,127.947578 321.924988,127.969795 322.918091,128.204865 
	C329.044830,128.266098 334.597931,128.114487 340.151031,127.962860 
	C340.569580,127.993668 340.988129,128.024475 341.940125,128.431046 
	C346.036102,129.191498 349.598572,129.576202 353.161072,129.960892 
	C353.161072,129.960892 353.588440,130.046661 354.010132,130.322021 
	C355.002563,130.720276 355.573303,130.843155 356.144073,130.966034 
M327.972229,199.805267 
	C324.736145,193.383026 319.356049,189.883331 312.472046,188.432434 
	C298.939056,185.580200 285.105865,197.692627 287.217285,210.546265 
	C289.152466,222.327026 301.761505,229.797867 314.407104,226.656189 
	C326.647614,223.615158 332.512939,212.569550 327.972229,199.805267 
M250.262329,167.506851 
	C250.012207,167.743622 249.762100,167.980392 249.511978,168.217148 
	C249.610123,168.320602 249.788101,168.519409 249.794891,168.513733 
	C250.058701,168.292877 250.306870,168.053360 250.262329,167.506851 
z"/>
<path fill="#0E5153" opacity="1.000000" stroke="none" 
	d="
M236.427002,395.012726 
	C237.654755,393.035339 238.946335,390.594757 240.959900,389.186493 
	C250.404816,382.580902 261.135040,379.996826 272.548065,379.917419 
	C275.368835,379.897766 278.189880,379.914490 282.200562,379.914490 
	C237.601913,319.786224 237.644974,258.784149 275.439941,196.824783 
	C275.998322,196.846817 276.556702,196.868851 277.115112,196.890884 
	C276.793396,198.866776 276.466278,200.841812 276.150970,202.818726 
	C274.715607,211.818542 272.361755,220.786789 272.046967,229.825897 
	C271.438995,247.284424 280.794373,254.391205 297.945862,250.573166 
	C312.812012,247.263840 325.811218,239.762512 338.578430,231.926788 
	C351.771057,223.829956 364.520569,214.861664 380.014801,211.605515 
	C385.548035,210.442673 391.261597,210.137939 396.892822,209.441513 
	C397.002045,209.929092 397.111237,210.416672 397.220459,210.904251 
	C392.193054,213.976059 387.137115,217.002304 382.143097,220.127457 
	C358.596893,234.862167 338.163513,252.988571 322.479828,276.051147 
	C304.696289,302.201569 296.646118,330.935242 300.777985,362.624084 
	C301.507294,368.217682 302.494293,373.794403 303.745667,379.291687 
	C304.066833,380.702576 305.863464,382.861664 306.956360,382.846222 
	C318.736145,382.679413 329.835846,379.866943 340.785583,373.323212 
	C337.392303,370.381195 334.342377,368.149475 331.790466,365.447418 
	C323.934814,357.129547 316.014465,348.844238 308.701752,340.061310 
	C306.765717,337.735992 305.918579,333.539337 306.302612,330.414734 
	C307.926666,317.200104 312.859222,305.016144 319.406769,293.478760 
	C319.862152,292.676361 320.695953,292.088745 321.474304,291.275238 
	C325.527588,304.403320 329.103699,317.332184 333.535248,329.960938 
	C337.981293,342.631226 343.302368,354.990997 352.085388,367.430603 
	C359.331055,359.718567 366.624146,353.128632 372.521332,345.464569 
	C392.045166,320.091217 404.527588,291.150238 410.491669,259.967896 
	C417.070984,225.568832 413.555695,191.675751 398.884918,159.426285 
	C397.743774,156.917740 395.763153,154.791092 393.998383,152.179047 
	C385.615845,136.363052 374.185486,123.673958 357.418823,118.098907 
	C346.354065,114.419785 334.353302,114.905441 322.488495,117.234924 
	C300.766968,121.499626 280.909180,130.206940 261.342773,140.388718 
	C262.667816,134.372192 264.316193,128.661270 265.974915,122.978973 
	C265.985291,123.007591 265.938873,122.967995 266.300110,122.903976 
	C267.060089,121.781296 267.458801,120.722633 267.867493,119.488983 
	C267.877441,119.314003 268.016846,118.992393 268.227905,118.866669 
	C268.698425,118.521912 268.871552,118.248215 268.942932,117.951614 
	C268.927582,117.983368 268.895508,117.920525 269.283661,117.946960 
	C270.447876,117.982468 271.223938,117.991539 272.000671,118.383911 
	C272.498810,120.444160 272.996277,122.121094 273.493744,123.798019 
	C273.909698,123.770370 274.325653,123.742714 274.741608,123.715065 
	C275.129364,122.765221 275.517120,121.815384 275.946350,120.877365 
	C275.987854,120.889175 275.903625,120.907776 276.279541,120.930466 
	C280.392029,118.580055 284.128601,116.206955 287.882935,113.837578 
	C287.900726,113.841301 287.903198,113.877586 288.302704,113.914078 
	C294.116028,111.596245 299.529877,109.241920 304.976471,106.930893 
	C305.009247,106.974190 304.923035,106.908455 305.316772,106.936996 
	C307.442719,105.904892 309.174896,104.844246 311.086700,103.584846 
	C311.768372,103.225540 312.270447,103.064995 313.173157,102.934708 
	C315.036896,101.954956 316.500031,100.944954 317.984009,99.961296 
	C318.004822,99.987640 317.943542,99.960342 318.298187,99.966805 
	C319.432037,99.307785 320.211212,98.642303 320.995850,97.988701 
	C321.001282,98.000580 320.978455,97.988495 321.361511,97.992874 
	C325.213776,98.003540 327.275208,96.305817 327.952637,92.911835 
	C327.984161,92.929054 327.918091,92.957253 328.147888,92.846893 
	C328.571503,92.463226 328.765259,92.189919 328.947388,91.951309 
	C328.935760,91.986000 328.895416,91.924934 329.248383,91.907135 
	C330.344879,90.872589 331.088379,89.855850 331.878235,88.845123 
	C331.924591,88.851128 331.843750,88.898018 332.176453,88.779312 
	C339.091705,82.336151 338.231262,73.558678 339.867981,65.662811 
	C340.359497,63.291622 339.274292,60.593605 338.902161,58.009430 
	C338.892944,57.973545 338.957214,57.936668 339.116882,57.573021 
	C339.721313,54.244362 340.166046,51.279358 340.819092,46.925484 
	C332.780121,49.187424 325.678162,51.028522 318.675354,53.190826 
	C306.403992,56.979942 295.906189,64.083389 285.954285,71.876602 
	C282.668060,74.450020 280.631439,78.619118 278.013428,82.029770 
	C278.003357,82.000938 278.053711,82.035614 277.788239,81.944199 
	C277.108917,82.181351 276.695068,82.509926 276.047241,83.119995 
	C273.191010,86.610420 270.480103,89.751831 267.971893,93.047546 
	C265.537903,96.245750 263.312073,99.602356 260.994812,102.889404 
	C263.712463,95.376793 265.868835,87.593292 269.323059,80.436188 
	C272.151855,74.574921 275.948273,68.921104 280.378265,64.164970 
	C284.839020,59.375809 290.280731,55.277409 295.867798,51.800724 
	C315.122284,39.819321 336.192657,33.854511 358.820831,33.821106 
	C356.367828,41.010811 353.587067,47.873554 351.740051,54.979015 
	C350.242157,60.741409 349.869171,66.795876 348.991943,72.720024 
	C347.655396,81.746529 346.633942,90.865646 341.287140,98.938805 
	C355.684845,100.031128 369.640564,102.031235 382.804565,108.715141 
	C397.826691,116.342476 408.583527,127.947243 416.590332,142.172272 
	C425.532104,158.058426 430.659119,175.380142 431.880463,193.594955 
	C432.756744,206.663971 433.431549,219.835617 432.771729,232.889496 
	C432.268677,242.841583 430.256897,252.879242 427.621033,262.524902 
	C423.354706,278.137146 418.483093,293.623291 413.013947,308.856384 
	C407.701202,323.653748 399.337708,336.958862 389.987610,349.564850 
	C379.404419,363.833282 366.402557,375.729004 352.248505,386.305023 
	C345.449463,391.385376 337.363739,394.149353 328.989197,395.532959 
	C315.157776,397.818176 301.398468,397.589355 287.667847,394.217987 
	C270.700989,390.052063 253.679886,389.066071 236.427002,395.012726 
z"/>
<path fill="#125055" opacity="1.000000" stroke="none" 
	d="
M188.874146,359.584869 
	C188.874146,359.584869 188.863174,359.284668 189.262970,359.080139 
	C190.106384,357.911316 190.549988,356.947021 190.993591,355.982697 
	C190.993591,355.982697 191.001892,356.001099 191.334442,355.935120 
	C192.098923,354.896851 192.530853,353.924561 192.962769,352.952271 
	C192.962769,352.952271 192.991608,353.005249 193.331360,352.920563 
	C194.059494,351.761627 194.447891,350.687347 194.836273,349.613098 
	C194.836273,349.613098 194.793793,349.294952 195.228638,349.091705 
	C196.675919,346.477844 197.961548,344.142883 198.653473,341.643555 
	C201.624176,330.912659 203.545807,320.125000 200.563522,308.981903 
	C199.321655,304.341736 198.730957,299.527252 197.751038,294.294769 
	C199.780533,294.629700 200.890808,294.812897 202.001099,294.996094 
	C202.301376,295.473480 202.601654,295.950836 202.707596,296.958862 
	C203.904999,302.515747 206.148300,307.481232 206.511703,312.580750 
	C207.274521,323.284882 207.074142,334.059143 207.207535,344.805359 
	C207.232956,346.853943 206.974319,348.906006 206.846725,350.956482 
	C206.380676,352.476318 205.914627,353.996185 205.007690,355.888519 
	C204.311615,356.481842 204.145966,356.756653 204.069870,357.085480 
	C204.069870,357.085480 204.099121,357.018219 203.785706,357.185364 
	C202.664459,359.589203 201.856613,361.825836 201.048767,364.062500 
	C201.048767,364.062500 201.020523,363.992889 200.675140,364.055359 
	C199.606232,365.531555 198.882706,366.945312 198.159180,368.359070 
	C198.159195,368.359070 198.111816,368.704651 197.824219,368.980133 
	C197.280060,369.468842 197.109314,369.736786 197.024399,370.059418 
	C197.024399,370.059418 197.022736,369.995972 196.695221,370.042267 
	C193.596146,373.086212 190.824570,376.083862 188.053009,379.081512 
	C188.052994,379.081512 187.993896,379.022186 187.656799,379.025391 
	C186.213531,380.305603 185.107361,381.582672 184.001205,382.859711 
	C166.217560,391.662994 150.272537,386.185516 135.452362,375.857635 
	C114.011002,360.915558 101.952873,338.989777 93.231384,315.205505 
	C89.089798,303.910980 87.216080,291.804779 83.810371,280.214569 
	C80.843491,270.117737 80.700279,259.738495 79.324982,248.704391 
	C79.009041,238.684036 78.989380,229.400009 78.969711,220.115982 
	C79.644066,215.975739 80.675705,211.857361 80.930435,207.691452 
	C81.987206,190.408951 87.132927,174.185425 94.231750,158.650177 
	C97.750771,150.949051 102.986290,144.017944 107.584099,136.827271 
	C115.488777,124.464836 127.781052,117.706657 140.922791,113.118500 
	C158.257996,107.066277 175.064651,108.620468 190.184006,120.455498 
	C198.141678,126.684532 206.149857,133.060516 214.923294,137.958603 
	C220.406372,141.019745 227.351974,141.473434 233.654480,143.044373 
	C234.948608,143.366928 236.301270,143.454727 237.626938,143.650726 
	C237.625290,144.172455 237.623642,144.694183 237.622009,145.215912 
	C235.936707,145.401962 234.251404,145.588013 231.858047,145.856812 
	C230.047821,145.643326 228.938416,145.066574 227.844589,145.094727 
	C218.100906,145.345474 209.513397,141.846146 200.902832,137.055283 
	C196.420822,134.619980 192.275162,132.314484 188.232407,129.840820 
	C178.742874,124.034393 168.773041,119.950760 157.401886,122.373703 
	C140.624237,125.948654 127.451141,135.055466 118.013725,149.371780 
	C110.921394,160.130676 107.153847,172.236481 103.730835,184.564438 
	C99.709045,199.048874 98.309608,213.787766 98.028252,228.682739 
	C97.922409,234.285934 98.328506,239.948853 99.071411,245.508362 
	C101.057419,260.370667 102.509544,275.376923 105.720146,289.986145 
	C110.660355,312.465576 120.212502,333.002899 134.732513,351.174683 
	C140.106033,357.899658 146.430801,363.228790 154.029297,366.646606 
	C159.128952,368.940430 164.408752,372.918060 171.134369,370.018250 
	C172.041672,370.112762 172.565186,370.123322 173.335571,370.362976 
	C175.381638,369.716095 177.180801,368.840088 178.992279,367.979401 
	C179.004608,367.994751 178.969955,367.978790 179.271774,367.958252 
	C180.037231,367.594055 180.500854,367.250397 180.961258,366.947845 
	C180.958023,366.988922 180.915436,366.918365 181.290771,366.937317 
	C183.133423,365.366150 184.600708,363.776001 186.068008,362.185883 
	C186.068008,362.185883 186.090912,362.091278 186.409775,362.020721 
	C187.125275,361.590179 187.521912,361.230225 187.918549,360.870239 
	C187.918533,360.870239 187.981369,360.909637 188.195099,360.771973 
	C188.563934,360.284515 188.719040,359.934692 188.874146,359.584869 
z"/>
<path fill="#1FCA68" opacity="1.000000" stroke="none" 
	d="
M268.016846,118.992393 
	C268.016846,118.992393 267.877441,119.314003 267.609863,119.700203 
	C266.874481,121.046936 266.406677,122.007469 265.938873,122.968002 
	C265.938873,122.967995 265.985291,123.007591 265.712952,123.204887 
	C263.899109,127.025009 262.445770,130.689346 260.769806,134.248856 
	C260.157410,135.549530 259.016235,136.601227 258.086914,137.387146 
	C255.078934,130.330246 252.100327,123.652702 249.067688,116.685432 
	C248.667801,115.940613 248.321960,115.485512 247.989441,115.016785 
	C248.002777,115.003143 247.967560,115.015533 247.882904,114.782776 
	C247.628815,114.242043 247.373993,114.043884 247.043106,113.971405 
	C247.052444,113.987274 247.058578,113.948456 247.014160,113.625732 
	C245.999130,112.180054 245.028519,111.057091 244.042801,109.972015 
	C244.027679,110.009903 244.077789,109.944000 244.001923,109.613274 
	C235.036179,98.451607 224.819733,89.557281 209.948700,85.507576 
	C220.173615,94.256935 229.528351,102.261688 238.931519,110.463058 
	C238.979950,110.659676 239.161835,111.021515 239.236282,111.224899 
	C239.485916,111.679298 239.723999,111.832886 240.084320,112.186035 
	C240.448776,112.977325 240.753906,113.471626 241.177612,114.294769 
	C241.482971,115.609634 241.669739,116.595673 241.915115,117.891106 
	C240.194519,117.504158 239.093109,117.256462 237.995850,117.004379 
	C238.000000,117.000000 237.993530,117.008347 237.822601,116.767357 
	C237.108475,116.323242 236.565292,116.120117 236.015961,115.952888 
	C236.009827,115.988785 236.067612,115.944435 235.851898,115.674698 
	C222.796371,109.560753 209.956573,103.716553 197.073425,97.940849 
	C197.030075,98.009354 197.131744,97.881363 197.082001,97.580704 
	C196.378723,96.608612 195.725204,95.937180 194.888519,94.992233 
	C194.094742,94.102211 193.484116,93.485703 192.901825,92.509140 
	C186.654251,81.281143 186.454544,69.171165 184.831863,56.503242 
	C186.437302,57.246098 186.989975,57.665997 187.592102,57.756371 
	C201.813721,59.890862 215.374313,64.014267 228.037796,70.945251 
	C229.107758,71.530853 230.493073,71.540314 232.015244,72.025749 
	C235.769882,75.292473 239.799759,77.916527 242.589767,81.504654 
	C247.561188,87.898163 251.745834,94.900200 256.359680,101.578552 
	C257.022369,102.537720 258.242767,103.111549 259.205078,103.863701 
	C259.639984,103.606720 260.074921,103.349739 260.752319,102.991081 
	C263.312073,99.602356 265.537903,96.245750 267.971893,93.047546 
	C270.480103,89.751831 273.191010,86.610420 276.317139,83.134598 
	C277.231903,82.590340 277.642822,82.312981 278.053711,82.035614 
	C278.053711,82.035614 278.003357,82.000938 278.335876,81.905342 
	C287.718323,74.783142 297.514160,69.205063 308.272369,65.070564 
	C318.229309,61.244007 328.214630,58.116150 338.957214,57.936668 
	C338.957214,57.936668 338.892944,57.973545 338.920380,58.436104 
	C338.305603,69.307137 336.361816,79.407379 331.843750,88.898018 
	C331.843750,88.898018 331.924591,88.851128 331.562622,88.911278 
	C330.432251,89.955925 329.663818,90.940422 328.895386,91.924927 
	C328.895416,91.924934 328.935760,91.986000 328.708069,92.050285 
	C328.292969,92.395462 328.105530,92.676353 327.918091,92.957245 
	C327.918091,92.957253 327.984161,92.929054 327.621399,92.983078 
	C325.165222,94.687576 323.071838,96.338043 320.978455,97.988503 
	C320.978455,97.988495 321.001282,98.000580 320.683960,98.039207 
	C319.558960,98.705338 318.751251,99.332840 317.943542,99.960342 
	C317.943542,99.960342 318.004822,99.987640 317.650330,100.020782 
	C315.788055,101.004105 314.280273,101.954277 312.772522,102.904449 
	C312.270447,103.064995 311.768372,103.225540 310.737305,103.637009 
	C308.446533,104.894775 306.684784,105.901619 304.923035,106.908463 
	C304.923035,106.908455 305.009247,106.974190 304.591553,106.928741 
	C298.750336,109.214729 293.326752,111.546165 287.903198,113.877594 
	C287.903198,113.877586 287.900726,113.841301 287.517700,113.854279 
	C283.391022,116.214096 279.647339,118.560944 275.903625,120.907776 
	C275.903625,120.907776 275.987854,120.889175 275.626892,120.869995 
	C275.196045,119.581406 275.126160,118.311981 275.039978,117.029282 
	C275.023651,117.016006 275.020294,117.048134 275.218140,116.933685 
	C275.655762,116.609550 275.796936,116.346870 275.923096,115.850693 
	C276.006744,115.670174 276.075684,115.278275 276.298889,115.120483 
	C276.701569,114.650932 276.881012,114.339172 277.028198,114.025955 
	C276.995880,114.024513 277.051178,114.058357 277.331787,113.896210 
	C278.764679,112.173225 279.917023,110.612396 281.042114,109.023239 
	C281.014893,108.994919 281.048065,109.065742 281.301819,108.900665 
	C281.746063,108.180870 281.936554,107.626152 282.085510,107.060226 
	C282.043945,107.049026 282.077362,107.128304 282.371368,107.115662 
	C283.092010,106.728180 283.518677,106.353333 284.209259,105.851715 
	C284.980438,105.144409 285.487671,104.563889 286.297485,103.841309 
	C293.355499,98.229065 300.110931,92.758888 306.866364,87.288712 
	C297.933746,89.708992 289.611115,93.070137 283.819946,100.739677 
	C283.820984,100.794220 283.908325,100.859604 283.602173,100.839645 
	C282.837891,101.191917 282.379791,101.564148 281.965271,101.953186 
	C282.008850,101.970001 281.931427,101.915909 281.646240,102.040359 
	C280.550323,103.088844 279.739563,104.012894 278.943390,104.968857 
	C278.957947,105.000778 278.965363,104.931084 278.725159,105.035042 
	C278.279449,105.416664 278.073944,105.694328 277.671906,106.076019 
	C277.230469,106.365005 277.060120,106.603264 276.678589,107.061607 
	C275.487976,108.456192 274.583099,109.683998 273.504791,111.014694 
	C273.123444,111.306427 272.998383,111.539703 272.739380,111.965744 
	C272.340363,112.407936 272.158142,112.701797 271.987061,112.997574 
	C271.998230,112.999489 271.986572,112.973846 271.699646,113.139465 
	C270.573639,114.843567 269.734589,116.382050 268.895508,117.920532 
	C268.895508,117.920525 268.927582,117.983368 268.718658,118.062805 
	C268.242035,118.365662 268.077728,118.649048 268.016846,118.992393 
z"/>
<path fill="#145155" opacity="1.000000" stroke="none" 
	d="
M249.121735,116.975151 
	C252.100327,123.652702 255.078934,130.330246 258.050476,137.752853 
	C258.026459,138.985443 258.009491,139.472977 257.992523,139.960510 
	C251.876602,136.613251 245.968063,132.790604 239.603287,130.013733 
	C224.498245,123.423576 208.937424,117.835312 194.056458,110.794563 
	C187.766373,107.818489 181.595001,103.054993 177.450668,97.540108 
	C173.777618,92.652382 171.534805,85.673744 171.212067,79.485077 
	C170.413376,64.170235 166.819244,49.795891 160.551895,35.944206 
	C160.369934,35.542084 160.475098,35.010048 160.446198,34.535519 
	C197.010056,33.333832 246.418045,53.942940 259.135468,103.486053 
	C258.242767,103.111549 257.022369,102.537720 256.359680,101.578552 
	C251.745834,94.900200 247.561188,87.898163 242.589767,81.504654 
	C239.799759,77.916527 235.769882,75.292473 231.895264,71.730789 
	C216.713364,57.848480 199.020676,51.142769 179.161682,47.940411 
	C179.811447,53.436264 180.145981,58.346138 181.018433,63.158489 
	C182.333237,70.410675 183.497498,77.768272 185.792496,84.729370 
	C186.830734,87.878525 190.433945,90.182037 192.873505,92.869186 
	C193.484116,93.485703 194.094742,94.102211 194.878448,95.318390 
	C195.744949,96.572487 196.438354,97.226921 197.131744,97.881363 
	C197.131744,97.881363 197.030075,98.009354 197.093414,98.294189 
	C197.834213,99.249191 198.395081,100.162735 199.207214,100.551796 
	C207.158600,104.360939 215.076157,108.257706 223.164719,111.756439 
	C227.296463,113.543648 231.756149,114.572708 236.067612,115.944443 
	C236.067612,115.944435 236.009827,115.988785 236.178528,116.204453 
	C236.895996,116.616196 237.444763,116.812271 237.993530,117.008347 
	C237.993530,117.008347 238.000000,117.000000 238.056229,117.338074 
	C240.655807,119.838852 243.199158,122.001556 245.742493,124.164268 
	C246.212952,123.699371 246.683395,123.234474 247.153854,122.769577 
	C245.650162,119.518135 245.754547,115.301407 241.059021,113.965927 
	C240.753906,113.471626 240.448776,112.977325 239.976959,112.007584 
	C239.637924,111.306297 239.421783,111.136086 239.161835,111.021515 
	C239.161835,111.021515 238.979950,110.659676 239.006775,110.131401 
	C240.715012,109.716751 242.396393,109.830376 244.077789,109.944000 
	C244.077789,109.944000 244.027679,110.009903 244.026825,110.341171 
	C245.036850,111.764442 246.047714,112.856445 247.058578,113.948456 
	C247.058578,113.948456 247.052444,113.987274 247.139465,114.194992 
	C247.410431,114.683250 247.657455,114.887520 247.967560,115.015533 
	C247.967560,115.015533 248.002777,115.003143 248.027954,115.314072 
	C248.409348,116.075050 248.765549,116.525101 249.121735,116.975151 
z"/>
<path fill="#1C5458" opacity="1.000000" stroke="none" 
	d="
M55.995140,423.984802 
	C55.648781,419.562714 55.086899,415.140137 55.097221,410.718872 
	C55.100044,409.510101 56.768982,408.258301 57.792423,407.134735 
	C58.022526,406.882141 58.751698,407.090485 59.250778,407.075562 
	C66.913841,406.846191 66.950798,406.845367 67.033516,414.356110 
	C67.095238,419.960754 67.045685,425.566620 67.045685,431.733734 
	C74.514351,425.482574 82.209160,419.406525 89.472931,412.852753 
	C95.839218,407.108704 96.073830,406.707428 106.295799,407.398499 
	C95.968262,415.883301 86.427994,423.721283 76.569206,431.820984 
	C88.488388,444.123810 99.912712,455.915833 111.548752,467.926392 
	C107.704964,467.926392 103.396683,468.467346 99.322418,467.724609 
	C96.857491,467.275269 94.444206,465.144623 92.547684,463.233551 
	C86.495277,457.134674 80.698090,450.782684 74.796585,444.533875 
	C72.235329,441.821899 69.660118,439.123077 66.189110,435.468384 
	C66.600647,438.554260 67.046837,440.630890 67.126045,442.721405 
	C67.414162,450.325317 67.656387,457.933624 67.674759,465.540863 
	C67.676643,466.320221 66.114944,467.692291 65.186172,467.777283 
	C62.084080,468.061188 58.939877,467.884857 55.101978,467.884857 
	C55.405537,462.230042 55.682987,457.061554 55.988014,450.967041 
	C56.008774,441.355621 56.001957,432.670227 55.995140,423.984802 
z"/>
<path fill="#195357" opacity="1.000000" stroke="none" 
	d="
M216.985352,418.980621 
	C216.743057,414.737823 216.500763,410.494995 216.232010,405.788940 
	C225.404144,407.386414 235.321457,402.727509 245.035873,407.042480 
	C250.166656,409.321442 254.732361,412.347534 256.799103,417.744171 
	C261.311920,429.527924 251.944794,442.301880 239.319199,443.720398 
	C235.904602,444.104065 232.410324,443.778534 228.330307,443.778534 
	C228.330307,450.667145 227.896957,457.108215 228.510956,463.447876 
	C228.823563,466.675659 228.271606,467.861267 225.245071,467.915558 
	C222.292892,467.968506 219.339035,467.927032 216.911728,467.927032 
	C216.911728,462.798798 216.911728,458.387604 217.007858,453.052338 
	C217.064438,441.079071 217.024887,430.029846 216.985352,418.980621 
M228.335144,439.509033 
	C236.615082,440.897034 241.896667,437.993103 244.850281,431.539978 
	C249.899887,420.507385 242.956497,410.028381 230.928879,409.935333 
	C230.267822,409.930206 229.606354,409.979584 228.087738,410.045349 
	C227.695648,411.522278 226.992569,412.993408 226.964981,414.477112 
	C226.841431,421.122375 226.851562,427.772095 226.954544,434.418030 
	C226.977722,435.913055 227.567322,437.399292 228.335144,439.509033 
z"/>
<path fill="#164F53" opacity="1.000000" stroke="none" 
	d="
M166.739456,466.950226 
	C167.492935,462.560852 168.246414,458.171478 168.962448,452.872925 
	C168.938538,442.342590 168.952057,432.721466 168.965576,423.100311 
	C168.370789,417.658875 167.776001,412.217468 167.118011,406.197784 
	C167.217987,406.184143 168.401337,405.906281 169.590591,405.878113 
	C179.593979,405.641205 189.598160,405.384064 199.602997,405.340210 
	C200.683121,405.335480 201.768997,406.647034 202.852203,407.348022 
	C201.687790,408.872528 200.516052,411.710663 199.360168,411.704254 
	C192.798920,411.667694 186.241455,410.951019 179.318420,410.438843 
	C179.318420,417.923096 179.318420,425.140137 179.318420,432.427643 
	C185.893356,432.427643 192.286087,432.427643 198.725754,432.427643 
	C197.774445,439.148132 197.594604,439.063782 191.818497,438.272949 
	C187.931396,437.740784 183.929977,438.043610 179.265640,437.855194 
	C178.375198,442.803406 178.033493,447.870880 178.080826,452.934662 
	C178.112137,456.285217 178.701553,459.630524 179.041107,462.978180 
	C187.035294,462.161011 195.029480,461.343842 203.293427,460.499084 
	C203.127213,462.523682 202.958618,464.577209 202.010162,466.794189 
	C189.733337,466.955139 178.236389,466.952698 166.739456,466.950226 
z"/>
<path fill="#165054" opacity="1.000000" stroke="none" 
	d="
M119.990952,416.058685 
	C119.819557,413.291290 119.648155,410.523865 119.430328,407.006866 
	C129.520828,406.683228 139.555527,406.291229 149.593750,406.148895 
	C150.587036,406.134796 151.601959,407.646729 152.606827,408.450378 
	C151.047287,409.235657 149.522247,410.605042 147.921921,410.699524 
	C142.558472,411.016205 137.168152,410.877655 130.955551,411.135986 
	C130.122986,418.531189 130.122986,425.703857 130.122986,432.964203 
	C133.018951,432.964203 135.478027,432.964203 137.937088,432.964203 
	C141.663727,432.626160 145.390366,432.288147 149.097015,431.951935 
	C150.618744,438.877319 149.947861,439.536835 143.200851,438.301453 
	C141.426407,437.976562 139.580109,438.044159 137.110870,437.558746 
	C134.363480,437.186005 132.272018,437.186005 129.828125,437.186005 
	C129.828125,444.114441 129.755325,450.582336 129.878998,457.046478 
	C129.910156,458.675629 130.569962,460.292786 130.940887,461.915436 
	C134.809555,461.922211 138.683853,462.057556 142.544861,461.888885 
	C144.973389,461.782776 147.398865,461.308258 149.796127,460.845642 
	C155.088120,459.824371 155.293594,460.012085 153.540619,465.860107 
	C141.785431,466.410034 130.458588,466.410034 119.060905,466.410034 
	C119.060905,465.344971 119.060905,464.192291 119.060913,463.039642 
	C119.365364,461.281647 119.669815,459.523621 119.990067,456.893463 
	C120.000893,442.700439 119.995918,429.379547 119.990952,416.058685 
z"/>
<path fill="#124D51" opacity="1.000000" stroke="none" 
	d="
M424.985138,424.021271 
	C424.615906,418.729370 424.246704,413.437439 424.284485,407.634949 
	C428.175415,407.086731 431.662018,407.122101 435.142700,406.995361 
	C441.384155,406.768158 447.622009,406.443512 453.861389,406.159546 
	C454.664246,406.143890 455.467072,406.128235 456.691101,406.475220 
	C457.442230,407.284607 457.772217,407.731323 458.102173,408.178070 
	C458.102173,408.178070 457.960541,408.635712 457.563690,408.922241 
	C456.767548,410.117432 456.368256,411.026062 455.968994,411.934692 
	C455.413910,411.806702 454.858856,411.678711 453.934113,411.036194 
	C452.683289,410.354614 451.802094,410.187592 450.920929,410.020538 
	C446.730286,410.213959 442.516296,410.215515 438.363495,410.720276 
	C437.152252,410.867554 435.193939,412.406647 435.148438,413.381104 
	C434.855530,419.653961 434.998688,425.947144 434.998688,432.977936 
	C441.833679,432.644318 448.121735,432.337402 454.401093,432.030914 
	C454.536804,438.450287 453.576691,439.065948 447.825043,438.279816 
	C443.939484,437.748810 439.940063,438.050781 435.281372,437.836487 
	C434.383118,443.096588 434.042725,448.501007 434.066742,453.903839 
	C434.080200,456.928375 434.697693,459.950226 435.043030,462.973267 
	C442.485657,462.374451 449.928314,461.775665 457.835236,461.672180 
	C457.998566,463.749878 457.697662,465.332275 457.370911,467.050446 
	C445.703979,467.050446 434.415955,467.050446 423.127930,467.050446 
	C423.745056,461.331360 424.362213,455.612274 425.008392,448.971649 
	C425.019989,440.040497 425.002563,432.030884 424.985138,424.021271 
z"/>
<path fill="#1A5357" opacity="1.000000" stroke="none" 
	d="
M402.928680,406.114746 
	C406.468292,406.114746 410.007935,406.114746 413.582245,406.114746 
	C413.390259,410.779877 412.197815,412.195587 407.454590,411.341064 
	C401.763611,410.315826 395.746887,411.098846 389.784241,411.098846 
	C389.784241,417.541199 389.784241,423.955414 389.784241,430.985199 
	C396.188171,430.655701 402.660889,430.322693 409.076843,429.992584 
	C410.245270,434.443634 408.756317,436.963867 404.768158,436.868652 
	C400.667511,436.770721 396.583527,435.955658 392.483368,435.867706 
	C391.413879,435.844757 389.364136,437.366730 389.369415,438.168579 
	C389.427063,446.920074 389.797058,455.669739 390.104584,464.419067 
	C390.132629,465.217743 390.316345,466.010986 390.568726,467.813354 
	C386.785309,467.813354 383.232544,468.046753 379.758850,467.626526 
	C379.018494,467.536957 378.047821,465.059845 378.074951,463.700439 
	C378.166656,459.099579 378.658813,454.506714 379.024902,448.978760 
	C379.021912,439.724487 378.991974,431.402222 378.962036,423.079987 
	C378.637146,418.052032 378.312256,413.024048 378.439178,407.518982 
	C380.705200,407.019714 382.521393,407.044220 384.333282,406.966827 
	C390.532562,406.702148 396.730347,406.401611 402.928680,406.114746 
z"/>
<path fill="#124D53" opacity="1.000000" stroke="none" 
	d="
M313.912323,461.906860 
	C315.914459,462.135986 317.963287,462.755219 319.910126,462.522186 
	C326.165222,461.773529 332.382660,460.710114 338.687622,459.757080 
	C338.343384,462.422943 338.072266,464.522369 337.015503,466.780212 
	C325.904846,466.962555 315.579224,467.042297 305.255890,466.924835 
	C304.213318,466.912964 303.184265,465.710541 302.148956,465.060608 
	C302.773071,459.977295 303.397186,454.893982 304.005249,448.908875 
	C303.980194,440.031311 303.971222,432.055573 303.962250,424.079803 
	C303.526611,418.551361 303.090973,413.022888 302.674744,407.740601 
	C303.248016,407.369476 303.386139,407.201721 303.522461,407.203217 
	C306.991730,407.240753 311.296783,406.112610 313.635681,407.764771 
	C315.191742,408.863953 313.940521,413.937256 313.584259,417.937439 
	C313.137238,432.394653 313.038330,446.146210 313.007019,459.897919 
	C313.005493,460.566864 313.596954,461.237183 313.912323,461.906860 
z"/>
<path fill="#2AC56E" opacity="1.000000" stroke="none" 
	d="
M201.285934,137.108673 
	C209.513397,141.846146 218.100906,145.345474 227.844589,145.094727 
	C228.938416,145.066574 230.047821,145.643326 231.560425,145.987534 
	C236.157700,147.289474 240.453400,149.862869 244.509232,149.528351 
	C253.514969,148.785568 262.574585,147.211288 271.282349,144.789688 
	C278.840424,142.687820 285.943054,138.950089 293.250702,135.944397 
	C294.893768,135.268585 296.552338,134.630478 298.585205,133.953247 
	C296.619965,135.463852 294.413483,137.298050 291.897797,138.466309 
	C286.492035,140.976608 280.926941,143.143738 274.651337,145.776840 
	C277.925415,146.485718 280.238922,146.986633 282.299072,147.776581 
	C277.252167,148.237061 272.340973,147.800217 267.688324,148.699966 
	C256.153473,150.930649 244.703537,153.635040 233.281555,156.405106 
	C220.801147,159.431854 209.644333,156.821243 199.666092,148.993988 
	C195.636917,145.833374 191.904129,142.294907 188.478363,138.969879 
	C193.042160,138.377121 197.164047,137.742889 201.285934,137.108673 
z"/>
<path fill="#144F53" opacity="1.000000" stroke="none" 
	d="
M349.994232,417.052856 
	C349.774109,414.007507 348.275635,409.873199 349.686340,408.217072 
	C351.154388,406.493774 355.433929,407.179138 358.479462,406.776245 
	C359.247009,406.674713 359.996918,406.439606 360.997589,406.210236 
	C360.997589,410.399475 360.997589,414.277527 360.545197,418.710938 
	C359.769623,419.800049 359.168060,420.331970 359.164459,420.867889 
	C359.096191,431.074280 359.057037,441.281586 359.163574,451.487091 
	C359.172180,452.313538 360.279907,453.128510 360.876892,453.948822 
	C361.139221,457.707367 361.545227,461.465424 361.557159,465.224762 
	C361.559937,466.102386 360.301910,467.649750 359.491760,467.743225 
	C356.720886,468.062927 353.821228,468.221344 351.123230,467.680511 
	C350.225067,467.500458 349.324097,465.054260 349.244812,463.599335 
	C349.123047,461.365173 349.710571,459.092377 350.005646,455.925201 
	C350.007538,442.360565 350.000885,429.706726 349.994232,417.052856 
z"/>
<path fill="#5B7F82" opacity="1.000000" stroke="none" 
	d="
M360.904175,453.511383 
	C360.279907,453.128510 359.172180,452.313538 359.163574,451.487091 
	C359.057037,441.281586 359.096191,431.074280 359.164459,420.867889 
	C359.168060,420.331970 359.769623,419.800049 360.467712,419.163330 
	C360.872253,430.398193 360.901855,441.736084 360.904175,453.511383 
z"/>
<path fill="#B2C8CC" opacity="1.000000" stroke="none" 
	d="
M313.957092,461.445374 
	C313.596954,461.237183 313.005493,460.566864 313.007019,459.897919 
	C313.038330,446.146210 313.137238,432.394653 313.544983,418.383240 
	C313.912170,432.410248 313.957031,446.697052 313.957092,461.445374 
z"/>
<path fill="#CBE0E5" opacity="1.000000" stroke="none" 
	d="
M423.268860,467.463654 
	C434.415955,467.050446 445.703979,467.050446 457.370911,467.050446 
	C457.697662,465.332275 457.998566,463.749878 458.296265,461.752014 
	C458.612366,463.448853 458.931641,465.561096 459.281708,467.876862 
	C446.984955,467.876862 435.197388,467.876862 423.268860,467.463654 
z"/>
<path fill="#D8EFF7" opacity="1.000000" stroke="none" 
	d="
M119.594330,416.238037 
	C119.995918,429.379547 120.000893,442.700439 119.991547,456.487061 
	C119.662544,456.302673 119.073677,455.652527 119.073700,455.002350 
	C119.074173,442.140717 119.142876,429.279053 119.594330,416.238037 
z"/>
<path fill="#055B4B" opacity="1.000000" stroke="none" 
	d="
M258.101593,140.220474 
	C258.009491,139.472977 258.026459,138.985443 258.079834,138.132202 
	C259.016235,136.601227 260.157410,135.549530 260.769806,134.248856 
	C262.445770,130.689346 263.899109,127.025009 265.702576,123.176270 
	C264.316193,128.661270 262.667816,134.372192 261.004333,140.456711 
	C260.063049,140.713684 259.136871,140.597061 258.101593,140.220474 
z"/>
<path fill="#CCE1E7" opacity="1.000000" stroke="none" 
	d="
M118.639305,463.142273 
	C119.060905,464.192291 119.060905,465.344971 119.060905,466.410034 
	C130.458588,466.410034 141.785431,466.410034 153.495667,466.246582 
	C152.918137,466.700439 151.963425,467.843048 150.995331,467.854523 
	C140.210571,467.982178 129.423752,467.935059 118.217705,467.935059 
	C118.217705,466.345734 118.217705,464.795319 118.639305,463.142273 
z"/>
<path fill="#CFE6ED" opacity="1.000000" stroke="none" 
	d="
M349.592743,417.224792 
	C350.000885,429.706726 350.007538,442.360565 350.002136,455.479492 
	C349.668793,455.300293 349.067780,454.656067 349.067719,454.011749 
	C349.066498,441.806763 349.136261,429.601746 349.592743,417.224792 
z"/>
<path fill="#CDE2E6" opacity="1.000000" stroke="none" 
	d="
M301.713196,465.116058 
	C303.184265,465.710541 304.213318,466.912964 305.255890,466.924835 
	C315.579224,467.042297 325.904846,466.962555 336.712219,466.954102 
	C336.184296,467.294922 335.176392,467.894226 334.163208,467.903320 
	C324.093079,467.993744 314.021912,467.956665 303.951569,468.031616 
	C301.860901,468.047180 300.184723,467.987640 301.713196,465.116058 
z"/>
<path fill="#CCE2E7" opacity="1.000000" stroke="none" 
	d="
M166.973663,467.339844 
	C178.236389,466.952698 189.733337,466.955139 201.713562,466.954712 
	C201.508499,467.276672 200.820023,467.884583 200.131851,467.884216 
	C189.157166,467.878571 178.182526,467.795105 166.973663,467.339844 
z"/>
<path fill="#FAFFFF" opacity="1.000000" stroke="none" 
	d="
M216.592087,419.175354 
	C217.024887,430.029846 217.064438,441.079071 217.042755,452.598145 
	C216.658188,452.408966 216.053391,451.749939 216.053558,451.091003 
	C216.056412,440.517365 216.136398,429.943695 216.592087,419.175354 
z"/>
<path fill="#406869" opacity="1.000000" stroke="none" 
	d="
M453.455688,406.120483 
	C447.622009,406.443512 441.384155,406.768158 435.142700,406.995361 
	C431.662018,407.122101 428.175415,407.086731 424.204956,407.211731 
	C424.774872,406.843231 425.828735,405.999847 426.888184,405.992767 
	C435.608215,405.934479 444.329224,406.031494 453.455688,406.120483 
z"/>
<path fill="#DBF1F2" opacity="1.000000" stroke="none" 
	d="
M130.972931,461.452911 
	C130.569962,460.292786 129.910156,458.675629 129.878998,457.046478 
	C129.755325,450.582336 129.828125,444.114441 129.828125,437.186005 
	C132.272018,437.186005 134.363480,437.186005 136.663330,437.534912 
	C135.062515,437.883789 133.253342,437.883789 131.004990,437.883789 
	C131.004990,445.775848 131.004990,453.383118 130.972931,461.452911 
z"/>
<path fill="#BCD2D6" opacity="1.000000" stroke="none" 
	d="
M168.569061,423.272125 
	C168.952057,432.721466 168.938538,442.342590 168.932831,452.426208 
	C168.624771,450.225372 168.068024,447.564667 168.039505,444.898315 
	C167.963028,437.748138 168.112686,430.595551 168.569061,423.272125 
z"/>
<path fill="#D8F0F2" opacity="1.000000" stroke="none" 
	d="
M137.763062,432.582642 
	C135.478027,432.964203 133.018951,432.964203 130.122986,432.964203 
	C130.122986,425.703857 130.122986,418.531189 130.539337,411.213013 
	C130.955688,417.927277 130.955688,424.787048 130.955688,431.814453 
	C133.425385,431.958405 135.507217,432.079712 137.763062,432.582642 
z"/>
<path fill="#D9EBEF" opacity="1.000000" stroke="none" 
	d="
M78.546738,220.239349 
	C78.989380,229.400009 79.009041,238.684036 79.001450,248.426605 
	C78.636963,248.278305 78.007141,247.671829 78.006447,247.064621 
	C77.996292,238.164032 78.070000,229.263351 78.546738,220.239349 
z"/>
<path fill="#2AC56E" opacity="1.000000" stroke="none" 
	d="
M312.679626,129.052963 
	C308.650604,130.753036 304.219391,132.371948 299.363586,133.976120 
	C303.385162,132.298187 307.831299,130.634979 312.679626,129.052963 
z"/>
<path fill="#D0E9EE" opacity="1.000000" stroke="none" 
	d="
M55.594345,424.167419 
	C56.001957,432.670227 56.008774,441.355621 56.001022,450.508118 
	C55.656834,448.514771 55.076897,446.057404 55.046310,443.593231 
	C54.966721,437.180420 55.128223,430.764618 55.594345,424.167419 
z"/>
<path fill="#4F7476" opacity="1.000000" stroke="none" 
	d="
M402.465729,406.084778 
	C396.730347,406.401611 390.532562,406.702148 384.333282,406.966827 
	C382.521393,407.044220 380.705200,407.019714 378.423981,407.090698 
	C378.822876,406.751129 379.685730,406.034210 380.555023,406.026306 
	C387.703613,405.961273 394.853363,406.028046 402.465729,406.084778 
z"/>
<path fill="#81A6A7" opacity="1.000000" stroke="none" 
	d="
M179.017166,462.512512 
	C178.701553,459.630524 178.112137,456.285217 178.080826,452.934662 
	C178.033493,447.870880 178.375198,442.803406 178.839584,437.888123 
	C179.082794,446.041443 179.038010,454.044128 179.017166,462.512512 
z"/>
<path fill="#D6EDED" opacity="1.000000" stroke="none" 
	d="
M378.562134,423.249146 
	C378.991974,431.402222 379.021912,439.724487 379.014343,448.513123 
	C378.651031,446.532776 378.083832,444.089569 378.047150,441.638489 
	C377.956268,435.567017 378.108002,429.491913 378.562134,423.249146 
z"/>
<path fill="#82A6A7" opacity="1.000000" stroke="none" 
	d="
M435.016235,462.508270 
	C434.697693,459.950226 434.080200,456.928375 434.066742,453.903839 
	C434.042725,448.501007 434.383118,443.096588 434.855804,437.863281 
	C435.090118,446.036957 435.039795,454.040100 435.016235,462.508270 
z"/>
<path fill="#BCD2D6" opacity="1.000000" stroke="none" 
	d="
M424.588531,424.204865 
	C425.002563,432.030884 425.019989,440.040497 425.009613,448.517334 
	C424.654388,446.202637 424.099945,443.424988 424.047882,440.637939 
	C423.946838,435.224243 424.127808,429.805267 424.588531,424.204865 
z"/>
<path fill="#8DB1B4" opacity="1.000000" stroke="none" 
	d="
M303.576385,424.270050 
	C303.971222,432.055573 303.980194,440.031311 303.982361,448.471802 
	C303.649719,446.165436 303.097992,443.398560 303.046204,440.622345 
	C302.945770,435.237762 303.126373,429.847931 303.576385,424.270050 
z"/>
<path fill="#2AC56E" opacity="1.000000" stroke="none" 
	d="
M339.913177,127.589325 
	C334.597931,128.114487 329.044830,128.266098 323.231201,128.167084 
	C328.538910,127.682907 334.107117,127.449348 339.913177,127.589325 
z"/>
<path fill="#2AC56E" opacity="1.000000" stroke="none" 
	d="
M352.996368,129.637344 
	C349.598572,129.576202 346.036102,129.191498 342.247314,128.499725 
	C345.624542,128.566376 349.228119,128.940079 352.996368,129.637344 
z"/>
<path fill="#2AC56E" opacity="1.000000" stroke="none" 
	d="
M320.903503,127.656853 
	C319.542999,128.435349 317.999878,128.945343 316.201111,129.193665 
	C317.537231,128.417465 319.129089,127.902908 320.903503,127.656853 
z"/>
<path fill="#055F4A" opacity="1.000000" stroke="none" 
	d="
M184.277420,382.903961 
	C185.107361,381.582672 186.213531,380.305603 187.695084,379.042114 
	C187.134186,380.135468 186.197891,381.215210 185.185959,382.593567 
	C184.924774,382.910828 184.739212,382.929504 184.277420,382.903961 
z"/>
<path fill="#2AC56E" opacity="1.000000" stroke="none" 
	d="
M368.967896,135.661133 
	C367.811523,135.528336 366.492310,135.089340 365.103577,134.286865 
	C366.291046,134.400589 367.548035,134.877762 368.967896,135.661133 
z"/>
<path fill="#406869" opacity="1.000000" stroke="none" 
	d="
M456.297394,411.891052 
	C456.368256,411.026062 456.767548,410.117432 457.482361,409.147552 
	C457.407227,410.006653 457.016510,410.927002 456.297394,411.891052 
z"/>
<path fill="#406869" opacity="1.000000" stroke="none" 
	d="
M458.356689,408.008392 
	C457.772217,407.731323 457.442230,407.284607 457.087036,406.549469 
	C457.578308,406.786957 458.094788,407.312836 458.356689,408.008392 
z"/>
<path fill="#406869" opacity="1.000000" stroke="none" 
	d="
M451.080017,410.337708 
	C451.802094,410.187592 452.683289,410.354614 453.783630,410.785828 
	C453.081573,410.918274 452.160339,410.786591 451.080017,410.337708 
z"/>
<path fill="#2AC56E" opacity="1.000000" stroke="none" 
	d="
M362.908264,132.635498 
	C362.219788,132.829819 361.357056,132.720825 360.246155,132.393295 
	C360.909943,132.227234 361.821991,132.279724 362.908264,132.635498 
z"/>
<path fill="#2AC56E" opacity="1.000000" stroke="none" 
	d="
M364.934265,133.679932 
	C364.499237,133.778961 363.928162,133.595963 363.188171,133.155487 
	C363.612274,133.064651 364.205261,133.231277 364.934265,133.679932 
z"/>
<path fill="#2AC56E" opacity="1.000000" stroke="none" 
	d="
M356.002502,130.671448 
	C355.573303,130.843155 355.002563,130.720276 354.216339,130.392487 
	C354.620911,130.250671 355.240936,130.313782 356.002502,130.671448 
z"/>
<path fill="#2AC56E" opacity="1.000000" stroke="none" 
	d="
M358.997437,131.676239 
	C358.569702,131.841736 358.004364,131.713440 357.227356,131.379852 
	C357.630432,131.243851 358.245117,131.313156 358.997437,131.676239 
z"/>
<path fill="#2AC56E" opacity="1.000000" stroke="none" 
	d="
M315.002960,128.735260 
	C314.898529,128.978012 314.698395,128.983002 314.197632,128.980362 
	C314.233795,128.814331 314.570496,128.655930 315.002960,128.735260 
z"/>
<path fill="#0E5153" opacity="1.000000" stroke="none" 
	d="
M235.143250,395.867676 
	C235.045532,395.595367 235.257614,395.347656 235.753983,395.083405 
	C235.797394,395.302734 235.602325,395.577881 235.143250,395.867676 
z"/>
<path fill="#0C5252" opacity="1.000000" stroke="none" 
	d="
M328.132782,200.155396 
	C332.512939,212.569550 326.647614,223.615158 314.407104,226.656189 
	C301.761505,229.797867 289.152466,222.327026 287.217285,210.546265 
	C285.105865,197.692627 298.939056,185.580200 312.472046,188.432434 
	C319.356049,189.883331 324.736145,193.383026 328.132782,200.155396 
z"/>
<path fill="#09564F" opacity="1.000000" stroke="none" 
	d="
M188.036469,138.928406 
	C191.904129,142.294907 195.636917,145.833374 199.666092,148.993988 
	C209.644333,156.821243 220.801147,159.431854 233.281555,156.405106 
	C244.703537,153.635040 256.153473,150.930649 267.688324,148.699966 
	C272.340973,147.800217 277.252167,148.237061 282.509125,148.055023 
	C283.792542,148.311447 284.612518,148.578430 286.103088,148.963165 
	C289.806854,150.104279 292.839966,151.127670 295.873108,152.151062 
	C295.873108,152.151062 295.945068,152.128036 295.998138,152.350311 
	C296.353302,152.741547 296.655426,152.910492 296.957520,153.079437 
	C296.957520,153.079437 296.994690,153.014786 297.055420,153.268082 
	C297.404510,153.698883 297.692841,153.876389 297.981201,154.053909 
	C297.981201,154.053909 297.993469,153.997818 298.140442,154.266022 
	C298.838898,154.731674 299.390320,154.929138 299.941772,155.126587 
	C299.941772,155.126587 299.894531,155.065247 299.934967,155.429504 
	C300.612274,156.953018 301.249176,158.112289 302.252045,159.937714 
	C300.349579,159.485062 299.200012,159.211548 298.050446,158.938034 
	C298.050446,158.938034 298.026184,158.960373 297.809326,158.674591 
	C287.670807,153.473618 277.648682,154.284836 267.578033,157.862320 
	C266.920532,157.885040 266.263000,157.907761 264.991791,158.006256 
	C263.894592,158.368759 263.411102,158.655518 262.927612,158.942261 
	C262.927612,158.942276 262.988953,158.981735 262.597839,158.939850 
	C260.070038,159.576874 257.933350,160.255783 255.796677,160.934692 
	C255.796677,160.934692 255.393066,160.908066 254.954926,160.968246 
	C254.516800,161.028427 254.055054,161.175049 254.055054,161.175049 
	C253.501083,161.289276 252.947128,161.403488 251.857239,161.736786 
	C250.526215,162.286850 249.731125,162.617844 248.936035,162.948853 
	C248.936035,162.948853 248.992950,162.989548 248.660095,162.974457 
	C247.756149,163.261017 247.185059,163.562653 246.613968,163.864288 
	C246.613968,163.864273 246.328033,163.789368 245.770203,163.845398 
	C239.505005,164.997467 233.797638,166.093521 228.090271,167.189575 
	C225.668457,167.152634 223.246643,167.115692 220.007019,167.034973 
	C217.468338,166.663651 215.747482,166.336121 214.026627,166.008575 
	C214.026627,166.008575 213.637939,165.890045 213.210938,165.670410 
	C212.193405,165.281586 211.602905,165.112396 211.012390,164.943207 
	C211.012390,164.943207 211.003799,165.000229 210.800522,164.733353 
	C208.761749,163.548370 206.926239,162.630280 205.090744,161.712173 
	C204.969437,161.442276 204.776230,161.241592 204.171692,160.838242 
	C203.604645,160.307922 203.322754,160.141373 202.986588,160.066727 
	C202.986588,160.066727 202.990524,160.002884 202.795837,159.764908 
	C201.754532,158.965866 200.907913,158.404800 200.061295,157.843735 
	C198.609253,156.319733 197.157211,154.795731 195.298126,152.889587 
	C194.604904,152.311447 194.318741,152.115448 194.032578,151.919464 
	C194.032578,151.919464 194.016617,151.988083 193.956146,151.732056 
	C193.611008,151.291336 193.326340,151.106674 193.041672,150.922012 
	C193.041672,150.922012 193.080414,150.978195 193.045914,150.610962 
	C191.700897,148.413864 190.390366,146.583984 189.079849,144.754120 
	C188.900269,144.266251 188.720688,143.778381 188.246490,142.780243 
	C187.619308,141.134323 187.286743,139.998672 186.975555,138.893799 
	C186.996918,138.924591 186.934372,138.965881 187.211243,138.977051 
	C187.672775,138.983368 187.857437,138.978516 188.022888,138.967010 
	C188.003693,138.960358 188.036469,138.928406 188.036469,138.928406 
z"/>
<path fill="#2AC56E" opacity="1.000000" stroke="none" 
	d="
M186.954178,138.863022 
	C187.286743,139.998672 187.619308,141.134323 188.037506,142.618439 
	C182.789780,139.153198 177.155777,141.659302 171.893845,142.768250 
	C167.928360,143.603958 164.404053,146.401413 160.571106,148.067337 
	C159.186172,148.669266 157.159836,148.027237 155.962860,148.792404 
	C147.944183,153.918304 139.477356,158.922180 135.052322,167.693268 
	C129.334427,179.027039 123.966019,190.510651 121.860283,203.360443 
	C119.280167,219.104965 119.795532,234.588348 121.602600,250.386703 
	C123.347176,265.638733 127.014923,280.270935 131.866272,294.649719 
	C135.482025,305.366364 139.549408,316.012695 144.459534,326.186554 
	C149.022690,335.641479 154.966629,344.430054 160.307617,353.509125 
	C160.475418,353.794373 160.677307,354.262756 160.898102,354.283997 
	C166.341370,354.807587 166.044968,360.207611 168.502197,363.246613 
	C170.944122,366.266724 172.962769,369.884613 177.400711,365.569550 
	C178.151184,364.839874 179.939804,365.177917 181.524780,365.279907 
	C181.505676,365.997559 181.210556,366.457977 180.915436,366.918365 
	C180.915436,366.918365 180.958023,366.988922 180.662888,366.972137 
	C179.901825,367.296509 179.435883,367.637634 178.969955,367.978790 
	C178.969955,367.978790 179.004608,367.994751 178.644775,368.030670 
	C176.552872,368.755676 174.820786,369.444794 173.088699,370.133881 
	C172.565186,370.123322 172.041672,370.112762 171.107574,369.694824 
	C168.677765,366.909973 166.680908,364.513092 164.635605,362.158264 
	C152.366577,348.032501 143.592224,331.629669 136.493011,314.640869 
	C128.336288,295.121368 122.325249,274.793884 119.762985,253.510803 
	C118.388588,242.094513 117.298492,230.856766 117.854904,219.322510 
	C118.509705,205.748962 121.232147,192.798294 126.004868,180.151733 
	C131.078995,166.706497 139.320419,155.926392 151.829910,148.626953 
	C162.674698,142.298874 174.411041,139.113770 186.954178,138.863022 
z"/>
<path fill="#055F4A" opacity="1.000000" stroke="none" 
	d="
M201.951172,294.642517 
	C200.890808,294.812897 199.780533,294.629700 197.751038,294.294769 
	C198.730957,299.527252 199.321655,304.341736 200.563522,308.981903 
	C203.545807,320.125000 201.624176,330.912659 198.653473,341.643555 
	C197.961548,344.142883 196.675919,346.477844 195.278229,348.939087 
	C198.168793,338.994080 200.631775,328.877502 200.001022,318.218475 
	C199.006683,301.414795 194.595032,286.108215 181.306946,274.079956 
	C181.907959,273.343811 182.502731,273.119873 183.097488,272.895935 
	C192.224472,277.513916 197.678055,285.360687 201.951172,294.642517 
z"/>
<path fill="#055F4A" opacity="1.000000" stroke="none" 
	d="
M207.035202,350.622559 
	C206.974319,348.906006 207.232956,346.853943 207.207535,344.805359 
	C207.074142,334.059143 207.274521,323.284882 206.511703,312.580750 
	C206.148300,307.481232 203.904999,302.515747 202.736694,297.247253 
	C205.245743,305.024292 207.768967,312.985291 209.756348,321.077820 
	C212.200012,331.028381 209.883698,340.706055 207.035202,350.622559 
z"/>
<path fill="#2AC56E" opacity="1.000000" stroke="none" 
	d="
M268.069519,157.898087 
	C277.648682,154.284836 287.670807,153.473618 297.816589,158.669998 
	C294.202728,157.919357 289.918488,159.397995 286.321045,156.311798 
	C285.222198,155.369141 282.525360,156.142715 280.585510,156.357483 
	C276.568420,156.802246 272.568207,157.399384 268.069519,157.898087 
z"/>
<path fill="#2AC56E" opacity="1.000000" stroke="none" 
	d="
M298.081299,159.287842 
	C299.200012,159.211548 300.349579,159.485062 302.252045,159.937714 
	C301.249176,158.112289 300.612274,156.953018 299.914246,155.462234 
	C304.784760,156.547089 304.679657,160.404572 304.869049,164.119324 
	C304.461945,164.454361 304.054840,164.789383 303.647736,165.124405 
	C301.802521,163.295486 299.957306,161.466568 298.081299,159.287842 
z"/>
<path fill="#2AC56E" opacity="1.000000" stroke="none" 
	d="
M228.411102,167.421661 
	C233.797638,166.093521 239.505005,164.997467 245.629395,163.890289 
	C240.929733,168.141052 234.983597,168.598145 228.411102,167.421661 
z"/>
<path fill="#057D41" opacity="1.000000" stroke="none" 
	d="
M182.856033,272.646545 
	C182.502731,273.119873 181.907959,273.343811 181.105682,273.814911 
	C177.221313,272.329437 173.544464,270.596802 169.867599,268.864166 
	C170.032822,268.425629 170.198029,267.987091 170.363251,267.548553 
	C174.447021,269.164764 178.530807,270.780975 182.856033,272.646545 
z"/>
<path fill="#055F4A" opacity="1.000000" stroke="none" 
	d="
M188.384705,379.006165 
	C190.824570,376.083862 193.596146,373.086212 196.717712,370.064636 
	C194.283951,373.004089 191.500183,375.967468 188.384705,379.006165 
z"/>
<path fill="#2AC56E" opacity="1.000000" stroke="none" 
	d="
M295.843262,151.786774 
	C292.839966,151.127670 289.806854,150.104279 286.428131,148.957062 
	C289.326172,149.696320 292.569763,150.559402 295.843262,151.786774 
z"/>
<path fill="#2AC56E" opacity="1.000000" stroke="none" 
	d="
M189.053772,145.157684 
	C190.390366,146.583984 191.700897,148.413864 193.060760,150.580246 
	C189.829376,150.595123 188.898849,148.481964 189.053772,145.157684 
z"/>
<path fill="#055F4A" opacity="1.000000" stroke="none" 
	d="
M201.334030,363.863983 
	C201.856613,361.825836 202.664459,359.589203 203.806412,357.215637 
	C203.300110,359.274323 202.459702,361.469910 201.334030,363.863983 
z"/>
<path fill="#055F4A" opacity="1.000000" stroke="none" 
	d="
M181.290771,366.937317 
	C181.210556,366.457977 181.505676,365.997559 181.930511,365.293884 
	C182.060211,365.050629 182.026138,365.015411 182.270325,364.933777 
	C182.751358,364.583862 182.988205,364.315613 183.225037,364.047333 
	C183.991501,363.483215 184.757965,362.919128 185.796204,362.270447 
	C184.600708,363.776001 183.133423,365.366150 181.290771,366.937317 
z"/>
<path fill="#2AC56E" opacity="1.000000" stroke="none" 
	d="
M205.106232,162.110596 
	C206.926239,162.630280 208.761749,163.548370 210.822754,164.714966 
	C209.072739,164.145294 207.097214,163.327148 205.106232,162.110596 
z"/>
<path fill="#2AC56E" opacity="1.000000" stroke="none" 
	d="
M256.210205,160.956604 
	C257.933350,160.255783 260.070038,159.576874 262.594299,158.903564 
	C260.862518,159.598969 258.743134,160.288742 256.210205,160.956604 
z"/>
<path fill="#2AC56E" opacity="1.000000" stroke="none" 
	d="
M214.104370,166.359467 
	C215.747482,166.336121 217.468338,166.663651 219.554794,167.076904 
	C218.007629,167.011887 216.094864,166.861115 214.104370,166.359467 
z"/>
<path fill="#055F4A" opacity="1.000000" stroke="none" 
	d="
M198.453522,368.192932 
	C198.882706,366.945312 199.606232,365.531555 200.702362,364.081299 
	C200.299271,365.372131 199.523575,366.699463 198.453522,368.192932 
z"/>
<path fill="#055F4A" opacity="1.000000" stroke="none" 
	d="
M190.724487,356.146545 
	C190.549988,356.947021 190.106384,357.911316 189.322952,358.942444 
	C189.473892,358.109619 189.964645,357.210022 190.724487,356.146545 
z"/>
<path fill="#055F4A" opacity="1.000000" stroke="none" 
	d="
M192.694946,353.117432 
	C192.530853,353.924561 192.098923,354.896851 191.324951,355.932465 
	C191.464310,355.091400 191.945724,354.187012 192.694946,353.117432 
z"/>
<path fill="#055F4A" opacity="1.000000" stroke="none" 
	d="
M194.582428,349.832428 
	C194.447891,350.687347 194.059494,351.761627 193.307343,352.902039 
	C193.405258,351.996033 193.866913,351.023895 194.582428,349.832428 
z"/>
<path fill="#2AC56E" opacity="1.000000" stroke="none" 
	d="
M200.098663,158.192795 
	C200.907913,158.404800 201.754532,158.965866 202.767609,159.779938 
	C202.001389,159.535919 201.068710,159.038895 200.098663,158.192795 
z"/>
<path fill="#2AC56E" opacity="1.000000" stroke="none" 
	d="
M250.409714,167.661575 
	C250.306870,168.053360 250.058701,168.292877 249.794891,168.513733 
	C249.788101,168.519409 249.610123,168.320602 249.511993,168.217163 
	C249.762100,167.980392 250.012207,167.743622 250.409714,167.661575 
z"/>
<path fill="#2AC56E" opacity="1.000000" stroke="none" 
	d="
M249.280518,162.962067 
	C249.731125,162.617844 250.526215,162.286850 251.657532,161.944366 
	C251.204163,162.280334 250.414581,162.627808 249.280518,162.962067 
z"/>
<path fill="#2AC56E" opacity="1.000000" stroke="none" 
	d="
M246.958649,163.878311 
	C247.185059,163.562653 247.756149,163.261017 248.654694,162.939911 
	C248.422577,163.244400 247.862961,163.568359 246.958649,163.878311 
z"/>
<path fill="#055F4A" opacity="1.000000" stroke="none" 
	d="
M187.633865,360.894836 
	C187.521912,361.230225 187.125275,361.590179 186.456100,362.005798 
	C186.572098,361.680725 186.960648,361.300079 187.633865,360.894836 
z"/>
<path fill="#2AC56E" opacity="1.000000" stroke="none" 
	d="
M299.782471,154.868195 
	C299.390320,154.929138 298.838898,154.731674 298.118225,154.284180 
	C298.507050,154.226013 299.065125,154.417908 299.782471,154.868195 
z"/>
<path fill="#2AC56E" opacity="1.000000" stroke="none" 
	d="
M263.220276,158.937759 
	C263.411102,158.655518 263.894592,158.368759 264.670776,158.085419 
	C264.479950,158.370300 263.996460,158.651779 263.220276,158.937759 
z"/>
<path fill="#2AC56E" opacity="1.000000" stroke="none" 
	d="
M211.208649,165.195496 
	C211.602905,165.112396 212.193405,165.281586 213.007751,165.669983 
	C212.622681,165.742050 212.013794,165.594925 211.208649,165.195496 
z"/>
<path fill="#055F4A" opacity="1.000000" stroke="none" 
	d="
M204.305115,356.992249 
	C204.145966,356.756653 204.311615,356.481842 204.775421,356.135376 
	C204.836166,356.306183 204.688248,356.602570 204.305115,356.992249 
z"/>
<path fill="#2AC56E" opacity="1.000000" stroke="none" 
	d="
M203.126282,160.270905 
	C203.322754,160.141373 203.604645,160.307922 203.968903,160.775604 
	C203.775833,160.896988 203.495987,160.727081 203.126282,160.270905 
z"/>
<path fill="#2AC56E" opacity="1.000000" stroke="none" 
	d="
M193.153427,151.151154 
	C193.326340,151.106674 193.611008,151.291336 193.989502,151.720718 
	C193.810608,151.770386 193.537888,151.575348 193.153427,151.151154 
z"/>
<path fill="#2AC56E" opacity="1.000000" stroke="none" 
	d="
M194.154678,152.155106 
	C194.318741,152.115448 194.604904,152.311447 195.020447,152.738403 
	C194.858795,152.776489 194.567795,152.583618 194.154678,152.155106 
z"/>
<path fill="#2AC56E" opacity="1.000000" stroke="none" 
	d="
M296.846619,152.853424 
	C296.655426,152.910492 296.353302,152.741547 295.987671,152.314026 
	C296.194641,152.246109 296.465210,152.436752 296.846619,152.853424 
z"/>
<path fill="#2AC56E" opacity="1.000000" stroke="none" 
	d="
M297.863617,153.830490 
	C297.692841,153.876389 297.404510,153.698883 297.020752,153.281754 
	C297.198883,153.230438 297.472473,153.418762 297.863617,153.830490 
z"/>
<path fill="#2AC56E" opacity="1.000000" stroke="none" 
	d="
M254.164307,161.291321 
	C254.055054,161.175049 254.516800,161.028427 254.758804,161.017578 
	C254.862656,161.375488 254.620239,161.509109 254.164307,161.291321 
z"/>
<path fill="#055F4A" opacity="1.000000" stroke="none" 
	d="
M188.639313,359.754639 
	C188.719040,359.934692 188.563934,360.284515 188.160736,360.785950 
	C188.076584,360.599792 188.240540,360.262085 188.639313,359.754639 
z"/>
<path fill="#2AC56E" opacity="1.000000" stroke="none" 
	d="
M182.967270,364.141052 
	C182.988205,364.315613 182.751358,364.583862 182.264526,364.955017 
	C182.246185,364.783539 182.477844,364.509155 182.967270,364.141052 
z"/>
<path fill="#055F4A" opacity="1.000000" stroke="none" 
	d="
M197.237946,369.943848 
	C197.109314,369.736786 197.280060,369.468842 197.744888,369.135498 
	C197.879059,369.343781 197.711838,369.614746 197.237946,369.943848 
z"/>
<path fill="#000000" opacity="1.000000" stroke="none" 
	d="
M339.116882,57.573021 
	C328.214630,58.116150 318.229309,61.244007 308.272369,65.070564 
	C297.514160,69.205063 287.718323,74.783142 278.345917,81.934174 
	C280.631439,78.619118 282.668060,74.450020 285.954285,71.876602 
	C295.906189,64.083389 306.403992,56.979942 318.675354,53.190826 
	C325.678162,51.028522 332.780121,49.187424 340.819092,46.925484 
	C340.166046,51.279358 339.721313,54.244362 339.116882,57.573021 
z"/>
<path fill="#055B4B" opacity="1.000000" stroke="none" 
	d="
M332.176453,88.779312 
	C336.361816,79.407379 338.305603,69.307137 338.929626,58.471992 
	C339.274292,60.593605 340.359497,63.291622 339.867981,65.662811 
	C338.231262,73.558678 339.091705,82.336151 332.176453,88.779312 
z"/>
<path fill="#055B4B" opacity="1.000000" stroke="none" 
	d="
M288.302704,113.914078 
	C293.326752,111.546165 298.750336,109.214729 304.558777,106.885452 
	C299.529877,109.241920 294.116028,111.596245 288.302704,113.914078 
z"/>
<path fill="#055B4B" opacity="1.000000" stroke="none" 
	d="
M276.279541,120.930473 
	C279.647339,118.560944 283.391022,116.214096 287.499939,113.850555 
	C284.128601,116.206955 280.392029,118.580055 276.279541,120.930473 
z"/>
<path fill="#055B4B" opacity="1.000000" stroke="none" 
	d="
M275.056305,117.042564 
	C275.126160,118.311981 275.196045,119.581406 275.585388,120.858185 
	C275.517120,121.815384 275.129364,122.765221 274.741608,123.715065 
	C274.325653,123.742714 273.909698,123.770370 273.493744,123.798019 
	C272.996277,122.121094 272.498810,120.444160 272.000671,118.383614 
	C272.000000,118.000000 272.000000,117.999367 272.295898,117.867035 
	C273.413330,117.503990 274.234802,117.273277 275.056305,117.042564 
z"/>
<path fill="#055B4B" opacity="1.000000" stroke="none" 
	d="
M321.361511,97.992874 
	C323.071838,96.338043 325.165222,94.687576 327.589844,92.965858 
	C327.275208,96.305817 325.213776,98.003540 321.361511,97.992874 
z"/>
<path fill="#055B4B" opacity="1.000000" stroke="none" 
	d="
M305.316772,106.936996 
	C306.684784,105.901619 308.446533,104.894775 310.557678,103.835770 
	C309.174896,104.844246 307.442719,105.904892 305.316772,106.936996 
z"/>
<path fill="#055B4B" opacity="1.000000" stroke="none" 
	d="
M269.283661,117.946968 
	C269.734589,116.382050 270.573639,114.843567 271.705750,113.558853 
	C271.999237,115.208191 271.999603,116.603783 272.000000,117.999367 
	C272.000000,117.999367 272.000000,118.000000 272.000000,118.000305 
	C271.223938,117.991539 270.447876,117.982468 269.283661,117.946968 
z"/>
<path fill="#055B4B" opacity="1.000000" stroke="none" 
	d="
M313.173157,102.934708 
	C314.280273,101.954277 315.788055,101.004105 317.629486,99.994446 
	C316.500031,100.944954 315.036896,101.954956 313.173157,102.934708 
z"/>
<path fill="#055B4B" opacity="1.000000" stroke="none" 
	d="
M329.248352,91.907120 
	C329.663818,90.940422 330.432251,89.955925 331.516296,88.905273 
	C331.088379,89.855850 330.344879,90.872589 329.248352,91.907120 
z"/>
<path fill="#055B4B" opacity="1.000000" stroke="none" 
	d="
M318.298187,99.966797 
	C318.751251,99.332840 319.558960,98.705338 320.678528,98.027328 
	C320.211212,98.642303 319.432037,99.307785 318.298187,99.966797 
z"/>
<path fill="#055B4B" opacity="1.000000" stroke="none" 
	d="
M266.300110,122.903984 
	C266.406677,122.007469 266.874481,121.046936 267.599915,119.875183 
	C267.458801,120.722633 267.060089,121.781296 266.300110,122.903984 
z"/>
<path fill="#000000" opacity="1.000000" stroke="none" 
	d="
M277.788239,81.944199 
	C277.642822,82.312981 277.231903,82.590340 276.551086,82.853096 
	C276.695068,82.509926 277.108917,82.181351 277.788239,81.944199 
z"/>
<path fill="#055B4B" opacity="1.000000" stroke="none" 
	d="
M328.147888,92.846893 
	C328.105530,92.676353 328.292969,92.395462 328.719727,92.015594 
	C328.765259,92.189919 328.571503,92.463226 328.147888,92.846893 
z"/>
<path fill="#055B4B" opacity="1.000000" stroke="none" 
	d="
M268.227905,118.866669 
	C268.077728,118.649048 268.242035,118.365662 268.734009,118.031052 
	C268.871552,118.248215 268.698425,118.521912 268.227905,118.866669 
z"/>
<path fill="#000000" opacity="1.000000" stroke="none" 
	d="
M186.975555,138.893799 
	C174.411041,139.113770 162.674698,142.298874 151.829910,148.626953 
	C139.320419,155.926392 131.078995,166.706497 126.004868,180.151733 
	C121.232147,192.798294 118.509705,205.748962 117.854904,219.322510 
	C117.298492,230.856766 118.388588,242.094513 119.762985,253.510803 
	C122.325249,274.793884 128.336288,295.121368 136.493011,314.640869 
	C143.592224,331.629669 152.366577,348.032501 164.635605,362.158264 
	C166.680908,364.513092 168.677765,366.909973 170.723801,369.610901 
	C164.408752,372.918060 159.128952,368.940430 154.029297,366.646606 
	C146.430801,363.228790 140.106033,357.899658 134.732513,351.174683 
	C120.212502,333.002899 110.660355,312.465576 105.720146,289.986145 
	C102.509544,275.376923 101.057419,260.370667 99.071411,245.508362 
	C98.328506,239.948853 97.922409,234.285934 98.028252,228.682739 
	C98.309608,213.787766 99.709045,199.048874 103.730835,184.564438 
	C107.153847,172.236481 110.921394,160.130676 118.013725,149.371780 
	C127.451141,135.055466 140.624237,125.948654 157.401886,122.373703 
	C168.773041,119.950760 178.742874,124.034393 188.232407,129.840820 
	C192.275162,132.314484 196.420822,134.619980 200.902832,137.055267 
	C197.164047,137.742889 193.042160,138.377121 188.478363,138.969879 
	C188.036469,138.928406 188.003693,138.960358 187.941315,138.689896 
	C187.564087,138.601578 187.249222,138.783737 186.934372,138.965881 
	C186.934372,138.965881 186.996918,138.924591 186.975555,138.893799 
z"/>
<path fill="#055F4A" opacity="1.000000" stroke="none" 
	d="
M173.335571,370.362976 
	C174.820786,369.444794 176.552872,368.755676 178.632462,368.015320 
	C177.180801,368.840088 175.381638,369.716095 173.335571,370.362976 
z"/>
<path fill="#055F4A" opacity="1.000000" stroke="none" 
	d="
M179.271774,367.958252 
	C179.435883,367.637634 179.901825,367.296509 180.666122,366.931061 
	C180.500854,367.250397 180.037231,367.594055 179.271774,367.958252 
z"/>
<path fill="#000000" opacity="1.000000" stroke="none" 
	d="
M192.901825,92.509140 
	C190.433945,90.182037 186.830734,87.878525 185.792496,84.729370 
	C183.497498,77.768272 182.333237,70.410675 181.018433,63.158489 
	C180.145981,58.346138 179.811447,53.436264 179.161682,47.940411 
	C199.020676,51.142769 216.713364,57.848480 231.611877,71.522476 
	C230.493073,71.540314 229.107758,71.530853 228.037796,70.945251 
	C215.374313,64.014267 201.813721,59.890862 187.592102,57.756371 
	C186.989975,57.665997 186.437302,57.246098 184.831863,56.503242 
	C186.454544,69.171165 186.654251,81.281143 192.901825,92.509140 
z"/>
<path fill="#055E4B" opacity="1.000000" stroke="none" 
	d="
M244.001923,109.613266 
	C242.396393,109.830376 240.715012,109.716751 238.958344,109.934784 
	C229.528351,102.261688 220.173615,94.256935 209.948700,85.507576 
	C224.819733,89.557281 235.036179,98.451607 244.001923,109.613266 
z"/>
<path fill="#055B4B" opacity="1.000000" stroke="none" 
	d="
M283.818878,100.685135 
	C289.611115,93.070137 297.933746,89.708992 306.866364,87.288712 
	C300.110931,92.758888 293.355499,98.229065 286.283569,103.476898 
	C285.251038,102.398079 284.534943,101.541603 283.818878,100.685135 
z"/>
<path fill="#055E4B" opacity="1.000000" stroke="none" 
	d="
M235.851898,115.674698 
	C231.756149,114.572708 227.296463,113.543648 223.164719,111.756439 
	C215.076157,108.257706 207.158600,104.360939 199.207214,100.551796 
	C198.395081,100.162735 197.834213,99.249191 197.136749,98.225693 
	C209.956573,103.716553 222.796371,109.560753 235.851898,115.674698 
z"/>
<path fill="#055E4B" opacity="1.000000" stroke="none" 
	d="
M241.177612,114.294769 
	C245.754547,115.301407 245.650162,119.518135 247.153854,122.769577 
	C246.683395,123.234474 246.212952,123.699371 245.742493,124.164268 
	C243.199158,122.001556 240.655807,119.838852 238.052063,117.342453 
	C239.093109,117.256462 240.194519,117.504158 241.915115,117.891106 
	C241.669739,116.595673 241.482971,115.609634 241.177612,114.294769 
z"/>
<path fill="#0E5153" opacity="1.000000" stroke="none" 
	d="
M283.819946,100.739677 
	C284.534943,101.541603 285.251038,102.398079 285.981018,103.618958 
	C285.487671,104.563889 284.980438,105.144409 283.919037,105.890747 
	C282.935699,106.413818 282.506531,106.771057 282.077362,107.128304 
	C282.077362,107.128304 282.043945,107.049026 281.824097,107.216675 
	C281.418854,107.944801 281.233459,108.505272 281.048065,109.065742 
	C281.048065,109.065742 281.014893,108.994919 280.634277,109.005951 
	C279.168732,109.011024 278.083740,109.005051 276.999390,108.999542 
	C277.000000,109.000000 277.001221,109.000580 277.000916,108.649872 
	C276.988556,107.831047 276.976440,107.362938 276.964325,106.894829 
	C277.060120,106.603264 277.230469,106.365005 277.912537,105.969872 
	C278.554901,105.483482 278.760132,105.207283 278.965363,104.931076 
	C278.965363,104.931084 278.957947,105.000778 279.318604,104.977615 
	C280.429993,103.941597 281.180695,102.928749 281.931427,101.915909 
	C281.931427,101.915909 282.008850,101.970001 282.271667,101.942291 
	C282.992401,101.562920 283.450378,101.211266 283.908325,100.859604 
	C283.908325,100.859604 283.820984,100.794220 283.819946,100.739677 
z"/>
<path fill="#0E5153" opacity="1.000000" stroke="none" 
	d="
M272.295898,117.867035 
	C271.999603,116.603783 271.999237,115.208191 271.992706,113.393227 
	C271.986572,112.973846 271.998230,112.999489 272.215149,112.862061 
	C272.606781,112.422226 272.781494,112.119820 272.956207,111.817406 
	C272.998383,111.539703 273.123444,111.306427 273.824554,110.936302 
	C275.212219,110.170197 276.106720,109.585388 277.001221,109.000580 
	C277.001221,109.000580 277.000000,109.000000 276.999634,109.420540 
	C277.016571,111.246841 277.033875,112.652596 277.051178,114.058357 
	C277.051178,114.058357 276.995880,114.024513 276.789398,114.166794 
	C276.413818,114.632149 276.244751,114.955208 276.075684,115.278275 
	C276.075684,115.278275 276.006744,115.670174 275.739868,115.976624 
	C275.249298,116.494980 275.098389,116.750000 275.020294,117.048134 
	C275.020294,117.048134 275.023651,117.016006 275.039978,117.029282 
	C274.234802,117.273277 273.413330,117.503990 272.295898,117.867035 
z"/>
<path fill="#055B4B" opacity="1.000000" stroke="none" 
	d="
M277.331787,113.896210 
	C277.033875,112.652596 277.016571,111.246841 276.999023,109.420082 
	C278.083740,109.005051 279.168732,109.011024 280.661499,109.034271 
	C279.917023,110.612396 278.764679,112.173225 277.331787,113.896210 
z"/>
<path fill="#055E4B" opacity="1.000000" stroke="none" 
	d="
M247.014160,113.625732 
	C246.047714,112.856445 245.036850,111.764442 244.041946,110.303284 
	C245.028519,111.057091 245.999130,112.180054 247.014160,113.625732 
z"/>
<path fill="#055B4B" opacity="1.000000" stroke="none" 
	d="
M281.646240,102.040352 
	C281.180695,102.928749 280.429993,103.941597 279.304077,104.945694 
	C279.739563,104.012894 280.550323,103.088844 281.646240,102.040352 
z"/>
<path fill="#055B4B" opacity="1.000000" stroke="none" 
	d="
M277.000916,108.649872 
	C276.106720,109.585388 275.212219,110.170197 273.997955,110.833405 
	C274.583099,109.683998 275.487976,108.456192 276.678589,107.061607 
	C276.976440,107.362938 276.988556,107.831047 277.000916,108.649872 
z"/>
<path fill="#055E4B" opacity="1.000000" stroke="none" 
	d="
M197.082001,97.580704 
	C196.438354,97.226921 195.744949,96.572487 195.061615,95.591904 
	C195.725204,95.937180 196.378723,96.608612 197.082001,97.580704 
z"/>
<path fill="#055B4B" opacity="1.000000" stroke="none" 
	d="
M282.371368,107.115662 
	C282.506531,106.771057 282.935699,106.413818 283.655090,106.017532 
	C283.518677,106.353333 283.092010,106.728180 282.371368,107.115662 
z"/>
<path fill="#055B4B" opacity="1.000000" stroke="none" 
	d="
M283.602173,100.839645 
	C283.450378,101.211266 282.992401,101.562920 282.228088,101.925476 
	C282.379791,101.564148 282.837891,101.191917 283.602173,100.839645 
z"/>
<path fill="#055B4B" opacity="1.000000" stroke="none" 
	d="
M281.301819,108.900665 
	C281.233459,108.505272 281.418854,107.944801 281.865662,107.227882 
	C281.936554,107.626152 281.746063,108.180870 281.301819,108.900665 
z"/>
<path fill="#055E4B" opacity="1.000000" stroke="none" 
	d="
M249.067688,116.685432 
	C248.765549,116.525101 248.409348,116.075050 248.014618,115.327713 
	C248.321960,115.485512 248.667801,115.940613 249.067688,116.685432 
z"/>
<path fill="#055E4B" opacity="1.000000" stroke="none" 
	d="
M237.822601,116.767357 
	C237.444763,116.812271 236.895996,116.616196 236.184662,116.168556 
	C236.565292,116.120117 237.108475,116.323242 237.822601,116.767357 
z"/>
<path fill="#055B4B" opacity="1.000000" stroke="none" 
	d="
M275.218140,116.933685 
	C275.098389,116.750000 275.249298,116.494980 275.656219,116.157150 
	C275.796936,116.346870 275.655762,116.609550 275.218140,116.933685 
z"/>
<path fill="#055B4B" opacity="1.000000" stroke="none" 
	d="
M276.298889,115.120483 
	C276.244751,114.955208 276.413818,114.632149 276.821716,114.168243 
	C276.881012,114.339172 276.701569,114.650932 276.298889,115.120483 
z"/>
<path fill="#055B4B" opacity="1.000000" stroke="none" 
	d="
M278.725159,105.035034 
	C278.760132,105.207283 278.554901,105.483482 278.109070,105.865845 
	C278.073944,105.694328 278.279449,105.416664 278.725159,105.035034 
z"/>
<path fill="#055E4B" opacity="1.000000" stroke="none" 
	d="
M247.882904,114.782776 
	C247.657455,114.887520 247.410431,114.683250 247.130127,114.179123 
	C247.373993,114.043884 247.628815,114.242043 247.882904,114.782776 
z"/>
<path fill="#055B4B" opacity="1.000000" stroke="none" 
	d="
M272.739380,111.965744 
	C272.781494,112.119820 272.606781,112.422226 272.203979,112.860146 
	C272.158142,112.701797 272.340363,112.407936 272.739380,111.965744 
z"/>
<path fill="#055E4B" opacity="1.000000" stroke="none" 
	d="
M239.236282,111.224899 
	C239.421783,111.136086 239.637924,111.306297 239.917633,111.710602 
	C239.723999,111.832886 239.485916,111.679298 239.236282,111.224899 
z"/>
<path fill="#000000" opacity="1.000000" stroke="none" 
	d="
M228.945068,410.003571 
	C229.606354,409.979584 230.267822,409.930206 230.928879,409.935333 
	C242.956497,410.028381 249.899887,420.507385 244.850281,431.539978 
	C241.896667,437.993103 236.615082,440.897034 228.166702,438.739136 
	C227.999344,432.512939 227.884125,427.053314 228.040909,421.601501 
	C228.152237,417.730072 228.630554,413.869171 228.945068,410.003571 
z"/>
<path fill="#D3E7ED" opacity="1.000000" stroke="none" 
	d="
M228.516403,410.024475 
	C228.630554,413.869171 228.152237,417.730072 228.040909,421.601501 
	C227.884125,427.053314 227.999344,432.512939 227.947205,438.429413 
	C227.567322,437.399292 226.977722,435.913055 226.954544,434.418030 
	C226.851562,427.772095 226.841431,421.122375 226.964981,414.477112 
	C226.992569,412.993408 227.695648,411.522278 228.516403,410.024475 
z"/>
<path fill="#2AC56E" opacity="1.000000" stroke="none" 
	d="
M187.211243,138.977051 
	C187.249222,138.783737 187.564087,138.601578 187.960510,138.696564 
	C187.857437,138.978516 187.672775,138.983368 187.211243,138.977051 
z"/>
</svg>